<?xml version="1.0" encoding="utf-8" standalone="no"?>
<!DOCTYPE svg PUBLIC "-//W3C//DTD SVG 1.1//EN"
  "http://www.w3.org/Graphics/SVG/1.1/DTD/svg11.dtd">
<svg xmlns:xlink="http://www.w3.org/1999/xlink" width="963pt" height="364.436484pt" viewBox="0 0 963 364.436484" xmlns="http://www.w3.org/2000/svg" version="1.1">
 <metadata>
  <rdf:RDF xmlns:dc="http://purl.org/dc/elements/1.1/" xmlns:cc="http://creativecommons.org/ns#" xmlns:rdf="http://www.w3.org/1999/02/22-rdf-syntax-ns#">
   <cc:Work>
    <dc:type rdf:resource="http://purl.org/dc/dcmitype/StillImage"/>
    <dc:date>2026-08-29T13:38:44.698110</dc:date>
    <dc:format>image/svg+xml</dc:format>
    <dc:creator>
     <cc:Agent>
      <dc:title>Matplotlib v3.11.1, https://matplotlib.org/</dc:title>
     </cc:Agent>
    </dc:creator>
   </cc:Work>
  </rdf:RDF>
 </metadata>
 <defs>
  <style type="text/css">*{stroke-linejoin: round; stroke-linecap: butt}</style>
 </defs>
 <g id="figure_1">
  <g id="patch_1">
   <path d="M 0 364.436484 
L 963 364.436484 
L 963 0 
L 0 0 
z
" style="fill: #f7f5ef"/>
  </g>
  <g id="axes_1">
   <g id="patch_2">
    <path d="M 98.156362 54.092187 
Q 138.516286 56.751646 176.868105 54.22428 
" clip-path="url(#p3a7d417612)" style="fill: none; stroke: #2d7ea7; stroke-width: 1.8; stroke-linecap: round"/>
    <path d="M 169.446963 51.105521 
L 176.868105 54.22428 
L 169.920413 58.289938 
z
" clip-path="url(#p3a7d417612)" style="fill: #2d7ea7; stroke: #2d7ea7; stroke-width: 1.8; stroke-linecap: round"/>
   </g>
   <g id="patch_3">
    <path d="M 196.15223 54.092187 
Q 236.512154 56.751646 274.863972 54.22428 
" clip-path="url(#p3a7d417612)" style="fill: none; stroke: #2d7ea7; stroke-width: 1.8; stroke-linecap: round"/>
    <path d="M 267.442831 51.105521 
L 274.863972 54.22428 
L 267.91628 58.289938 
z
" clip-path="url(#p3a7d417612)" style="fill: #2d7ea7; stroke: #2d7ea7; stroke-width: 1.8; stroke-linecap: round"/>
   </g>
   <g id="patch_4">
    <path d="M 294.148098 54.092187 
Q 334.508022 56.751646 372.85984 54.22428 
" clip-path="url(#p3a7d417612)" style="fill: none; stroke: #2d7ea7; stroke-width: 1.8; stroke-linecap: round"/>
    <path d="M 365.438699 51.105521 
L 372.85984 54.22428 
L 365.912148 58.289938 
z
" clip-path="url(#p3a7d417612)" style="fill: #2d7ea7; stroke: #2d7ea7; stroke-width: 1.8; stroke-linecap: round"/>
   </g>
   <g id="patch_5">
    <path d="M 392.143966 54.092187 
Q 432.50389 56.751646 470.855708 54.22428 
" clip-path="url(#p3a7d417612)" style="fill: none; stroke: #2d7ea7; stroke-width: 1.8; stroke-linecap: round"/>
    <path d="M 463.434566 51.105521 
L 470.855708 54.22428 
L 463.908016 58.289938 
z
" clip-path="url(#p3a7d417612)" style="fill: #2d7ea7; stroke: #2d7ea7; stroke-width: 1.8; stroke-linecap: round"/>
   </g>
   <g id="patch_6">
    <path d="M 490.139833 54.092187 
Q 530.499757 56.751646 568.851576 54.22428 
" clip-path="url(#p3a7d417612)" style="fill: none; stroke: #2d7ea7; stroke-width: 1.8; stroke-linecap: round"/>
    <path d="M 561.430434 51.105521 
L 568.851576 54.22428 
L 561.903884 58.289938 
z
" clip-path="url(#p3a7d417612)" style="fill: #2d7ea7; stroke: #2d7ea7; stroke-width: 1.8; stroke-linecap: round"/>
   </g>
   <g id="patch_7">
    <path d="M 588.135701 54.092187 
Q 628.495625 56.751646 666.847443 54.22428 
" clip-path="url(#p3a7d417612)" style="fill: none; stroke: #2d7ea7; stroke-width: 1.8; stroke-linecap: round"/>
    <path d="M 659.426302 51.105521 
L 666.847443 54.22428 
L 659.899751 58.289938 
z
" clip-path="url(#p3a7d417612)" style="fill: #2d7ea7; stroke: #2d7ea7; stroke-width: 1.8; stroke-linecap: round"/>
   </g>
   <g id="patch_8">
    <path d="M 686.131569 54.092187 
Q 726.491493 56.751646 764.843311 54.22428 
" clip-path="url(#p3a7d417612)" style="fill: none; stroke: #2d7ea7; stroke-width: 1.8; stroke-linecap: round"/>
    <path d="M 757.42217 51.105521 
L 764.843311 54.22428 
L 757.895619 58.289938 
z
" clip-path="url(#p3a7d417612)" style="fill: #2d7ea7; stroke: #2d7ea7; stroke-width: 1.8; stroke-linecap: round"/>
   </g>
   <g id="patch_9">
    <path d="M 784.127437 54.092187 
Q 824.487361 56.751646 862.839179 54.22428 
" clip-path="url(#p3a7d417612)" style="fill: none; stroke: #2d7ea7; stroke-width: 1.8; stroke-linecap: round"/>
    <path d="M 855.418037 51.105521 
L 862.839179 54.22428 
L 855.891487 58.289938 
z
" clip-path="url(#p3a7d417612)" style="fill: #2d7ea7; stroke: #2d7ea7; stroke-width: 1.8; stroke-linecap: round"/>
   </g>
   <g id="patch_10">
    <path d="M 207.164969 319.711568 
Q 207.640982 190.179294 189.086321 64.0157 
" clip-path="url(#p3a7d417612)" style="fill: none; stroke: #2d7ea7; stroke-width: 1.8; stroke-linecap: round"/>
    <path d="M 186.572255 71.662887 
L 189.086321 64.0157 
L 193.695631 70.615265 
z
" clip-path="url(#p3a7d417612)" style="fill: #2d7ea7; stroke: #2d7ea7; stroke-width: 1.8; stroke-linecap: round"/>
   </g>
   <g id="text_1">
    <g id="patch_11">
     <path d="M 111.260735 58.662193 
L 165.764251 58.662193 
Q 167.714251 58.662193 167.714251 56.712193 
L 167.714251 50.211685 
Q 167.714251 48.261685 165.764251 48.261685 
L 111.260735 48.261685 
Q 109.310735 48.261685 109.310735 50.211685 
L 109.310735 56.712193 
Q 109.310735 58.662193 111.260735 58.662193 
z
" clip-path="url(#p3a7d417612)" style="fill: #ffffff; stroke: #ffffff; stroke-linejoin: miter"/>
    </g>
    <g clip-path="url(#p3a7d417612)">
     <!-- runoff / drainage -->
     <g transform="translate(111.260735 55.150669) scale(0.065 -0.065)">
      <defs>
       <path id="DejaVuSans-55" d="M 2631 2963 
Q 2534 3019 2420 3045 
Q 2306 3072 2169 3072 
Q 1681 3072 1420 2755 
Q 1159 2438 1159 1844 
L 1159 0 
L 581 0 
L 581 3500 
L 1159 3500 
L 1159 2956 
Q 1341 3275 1631 3429 
Q 1922 3584 2338 3584 
Q 2397 3584 2469 3576 
Q 2541 3569 2628 3553 
L 2631 2963 
z
" transform="scale(0.015625)"/>
       <path id="DejaVuSans-58" d="M 544 1381 
L 544 3500 
L 1119 3500 
L 1119 1403 
Q 1119 906 1312 657 
Q 1506 409 1894 409 
Q 2359 409 2629 706 
Q 2900 1003 2900 1516 
L 2900 3500 
L 3475 3500 
L 3475 0 
L 2900 0 
L 2900 538 
Q 2691 219 2414 64 
Q 2138 -91 1772 -91 
Q 1169 -91 856 284 
Q 544 659 544 1381 
z
M 1991 3584 
L 1991 3584 
z
" transform="scale(0.015625)"/>
       <path id="DejaVuSans-51" d="M 3513 2113 
L 3513 0 
L 2938 0 
L 2938 2094 
Q 2938 2591 2744 2837 
Q 2550 3084 2163 3084 
Q 1697 3084 1428 2787 
Q 1159 2491 1159 1978 
L 1159 0 
L 581 0 
L 581 3500 
L 1159 3500 
L 1159 2956 
Q 1366 3272 1645 3428 
Q 1925 3584 2291 3584 
Q 2894 3584 3203 3211 
Q 3513 2838 3513 2113 
z
" transform="scale(0.015625)"/>
       <path id="DejaVuSans-52" d="M 1959 3097 
Q 1497 3097 1228 2736 
Q 959 2375 959 1747 
Q 959 1119 1226 758 
Q 1494 397 1959 397 
Q 2419 397 2687 759 
Q 2956 1122 2956 1747 
Q 2956 2369 2687 2733 
Q 2419 3097 1959 3097 
z
M 1959 3584 
Q 2709 3584 3137 3096 
Q 3566 2609 3566 1747 
Q 3566 888 3137 398 
Q 2709 -91 1959 -91 
Q 1206 -91 779 398 
Q 353 888 353 1747 
Q 353 2609 779 3096 
Q 1206 3584 1959 3584 
z
" transform="scale(0.015625)"/>
       <path id="DejaVuSans-13ae" d="M 4531 4863 
L 4531 4384 
L 3981 4384 
Q 3672 4384 3551 4259 
Q 3431 4134 3431 3809 
L 3431 3500 
L 4378 3500 
L 4378 3053 
L 3431 3053 
L 3431 0 
L 2853 0 
L 2853 3053 
L 1275 3053 
L 1275 0 
L 697 0 
L 697 3053 
L 147 3053 
L 147 3500 
L 697 3500 
L 697 3744 
Q 697 4328 969 4595 
Q 1241 4863 1831 4863 
L 2375 4863 
L 2375 4384 
L 1825 4384 
Q 1516 4384 1394 4259 
Q 1275 4134 1275 3809 
L 1275 3500 
L 2853 3500 
L 2853 3744 
Q 2853 4328 3125 4595 
Q 3397 4863 3988 4863 
L 4531 4863 
z
" transform="scale(0.015625)"/>
       <path id="DejaVuSans-3" transform="scale(0.015625)"/>
       <path id="DejaVuSans-12" d="M 1625 4666 
L 2156 4666 
L 531 -594 
L 0 -594 
L 1625 4666 
z
" transform="scale(0.015625)"/>
       <path id="DejaVuSans-47" d="M 2906 2969 
L 2906 4863 
L 3481 4863 
L 3481 0 
L 2906 0 
L 2906 525 
Q 2725 213 2448 61 
Q 2172 -91 1784 -91 
Q 1150 -91 751 415 
Q 353 922 353 1747 
Q 353 2572 751 3078 
Q 1150 3584 1784 3584 
Q 2172 3584 2448 3432 
Q 2725 3281 2906 2969 
z
M 947 1747 
Q 947 1113 1208 752 
Q 1469 391 1925 391 
Q 2381 391 2643 752 
Q 2906 1113 2906 1747 
Q 2906 2381 2643 2742 
Q 2381 3103 1925 3103 
Q 1469 3103 1208 2742 
Q 947 2381 947 1747 
z
" transform="scale(0.015625)"/>
       <path id="DejaVuSans-44" d="M 2194 1759 
Q 1497 1759 1228 1600 
Q 959 1441 959 1056 
Q 959 750 1161 570 
Q 1363 391 1709 391 
Q 2188 391 2477 730 
Q 2766 1069 2766 1631 
L 2766 1759 
L 2194 1759 
z
M 3341 1997 
L 3341 0 
L 2766 0 
L 2766 531 
Q 2569 213 2275 61 
Q 1981 -91 1556 -91 
Q 1019 -91 701 211 
Q 384 513 384 1019 
Q 384 1609 779 1909 
Q 1175 2209 1959 2209 
L 2766 2209 
L 2766 2266 
Q 2766 2663 2505 2880 
Q 2244 3097 1772 3097 
Q 1472 3097 1187 3025 
Q 903 2953 641 2809 
L 641 3341 
Q 956 3463 1253 3523 
Q 1550 3584 1831 3584 
Q 2591 3584 2966 3190 
Q 3341 2797 3341 1997 
z
" transform="scale(0.015625)"/>
       <path id="DejaVuSans-4c" d="M 603 3500 
L 1178 3500 
L 1178 0 
L 603 0 
L 603 3500 
z
M 603 4863 
L 1178 4863 
L 1178 4134 
L 603 4134 
L 603 4863 
z
" transform="scale(0.015625)"/>
       <path id="DejaVuSans-4a" d="M 2906 1791 
Q 2906 2416 2648 2759 
Q 2391 3103 1925 3103 
Q 1463 3103 1205 2759 
Q 947 2416 947 1791 
Q 947 1169 1205 825 
Q 1463 481 1925 481 
Q 2391 481 2648 825 
Q 2906 1169 2906 1791 
z
M 3481 434 
Q 3481 -459 3084 -895 
Q 2688 -1331 1869 -1331 
Q 1566 -1331 1297 -1286 
Q 1028 -1241 775 -1147 
L 775 -588 
Q 1028 -725 1275 -790 
Q 1522 -856 1778 -856 
Q 2344 -856 2625 -561 
Q 2906 -266 2906 331 
L 2906 616 
Q 2728 306 2450 153 
Q 2172 0 1784 0 
Q 1141 0 747 490 
Q 353 981 353 1791 
Q 353 2603 747 3093 
Q 1141 3584 1784 3584 
Q 2172 3584 2450 3431 
Q 2728 3278 2906 2969 
L 2906 3500 
L 3481 3500 
L 3481 434 
z
" transform="scale(0.015625)"/>
       <path id="DejaVuSans-48" d="M 3597 1894 
L 3597 1613 
L 953 1613 
Q 991 1019 1311 708 
Q 1631 397 2203 397 
Q 2534 397 2845 478 
Q 3156 559 3463 722 
L 3463 178 
Q 3153 47 2828 -22 
Q 2503 -91 2169 -91 
Q 1331 -91 842 396 
Q 353 884 353 1716 
Q 353 2575 817 3079 
Q 1281 3584 2069 3584 
Q 2775 3584 3186 3129 
Q 3597 2675 3597 1894 
z
M 3022 2063 
Q 3016 2534 2758 2815 
Q 2500 3097 2075 3097 
Q 1594 3097 1305 2825 
Q 1016 2553 972 2059 
L 3022 2063 
z
" transform="scale(0.015625)"/>
      </defs>
      <use xlink:href="#DejaVuSans-55"/>
      <use xlink:href="#DejaVuSans-58" transform="translate(41.109375 0)"/>
      <use xlink:href="#DejaVuSans-51" transform="translate(104.484375 0)"/>
      <use xlink:href="#DejaVuSans-52" transform="translate(167.859375 0)"/>
      <use xlink:href="#DejaVuSans-13ae" transform="translate(229.046875 0)"/>
      <use xlink:href="#DejaVuSans-3" transform="translate(297.9375 0)"/>
      <use xlink:href="#DejaVuSans-12" transform="translate(329.71875 0)"/>
      <use xlink:href="#DejaVuSans-3" transform="translate(363.40625 0)"/>
      <use xlink:href="#DejaVuSans-47" transform="translate(395.1875 0)"/>
      <use xlink:href="#DejaVuSans-55" transform="translate(458.671875 0)"/>
      <use xlink:href="#DejaVuSans-44" transform="translate(499.78125 0)"/>
      <use xlink:href="#DejaVuSans-4c" transform="translate(561.0625 0)"/>
      <use xlink:href="#DejaVuSans-51" transform="translate(588.84375 0)"/>
      <use xlink:href="#DejaVuSans-44" transform="translate(652.21875 0)"/>
      <use xlink:href="#DejaVuSans-4a" transform="translate(713.5 0)"/>
      <use xlink:href="#DejaVuSans-48" transform="translate(776.984375 0)"/>
     </g>
    </g>
   </g>
   <g id="text_2">
    <g id="patch_12">
     <path d="M 208.262306 58.662193 
L 264.754416 58.662193 
Q 266.704416 58.662193 266.704416 56.712193 
L 266.704416 50.211685 
Q 266.704416 48.261685 264.754416 48.261685 
L 208.262306 48.261685 
Q 206.312306 48.261685 206.312306 50.211685 
L 206.312306 56.712193 
Q 206.312306 58.662193 208.262306 58.662193 
z
" clip-path="url(#p3a7d417612)" style="fill: #ffffff; stroke: #ffffff; stroke-linejoin: miter"/>
    </g>
    <g clip-path="url(#p3a7d417612)">
     <!-- tributary delivery -->
     <g transform="translate(208.262306 55.150669) scale(0.065 -0.065)">
      <defs>
       <path id="DejaVuSans-57" d="M 1172 4494 
L 1172 3500 
L 2356 3500 
L 2356 3053 
L 1172 3053 
L 1172 1153 
Q 1172 725 1289 603 
Q 1406 481 1766 481 
L 2356 481 
L 2356 0 
L 1766 0 
Q 1100 0 847 248 
Q 594 497 594 1153 
L 594 3053 
L 172 3053 
L 172 3500 
L 594 3500 
L 594 4494 
L 1172 4494 
z
" transform="scale(0.015625)"/>
       <path id="DejaVuSans-45" d="M 3116 1747 
Q 3116 2381 2855 2742 
Q 2594 3103 2138 3103 
Q 1681 3103 1420 2742 
Q 1159 2381 1159 1747 
Q 1159 1113 1420 752 
Q 1681 391 2138 391 
Q 2594 391 2855 752 
Q 3116 1113 3116 1747 
z
M 1159 2969 
Q 1341 3281 1617 3432 
Q 1894 3584 2278 3584 
Q 2916 3584 3314 3078 
Q 3713 2572 3713 1747 
Q 3713 922 3314 415 
Q 2916 -91 2278 -91 
Q 1894 -91 1617 61 
Q 1341 213 1159 525 
L 1159 0 
L 581 0 
L 581 4863 
L 1159 4863 
L 1159 2969 
z
" transform="scale(0.015625)"/>
       <path id="DejaVuSans-5c" d="M 2059 -325 
Q 1816 -950 1584 -1140 
Q 1353 -1331 966 -1331 
L 506 -1331 
L 506 -850 
L 844 -850 
Q 1081 -850 1212 -737 
Q 1344 -625 1503 -206 
L 1606 56 
L 191 3500 
L 800 3500 
L 1894 763 
L 2988 3500 
L 3597 3500 
L 2059 -325 
z
" transform="scale(0.015625)"/>
       <path id="DejaVuSans-4f" d="M 603 4863 
L 1178 4863 
L 1178 0 
L 603 0 
L 603 4863 
z
" transform="scale(0.015625)"/>
       <path id="DejaVuSans-59" d="M 191 3500 
L 800 3500 
L 1894 563 
L 2988 3500 
L 3597 3500 
L 2284 0 
L 1503 0 
L 191 3500 
z
" transform="scale(0.015625)"/>
      </defs>
      <use xlink:href="#DejaVuSans-57"/>
      <use xlink:href="#DejaVuSans-55" transform="translate(39.203125 0)"/>
      <use xlink:href="#DejaVuSans-4c" transform="translate(80.3125 0)"/>
      <use xlink:href="#DejaVuSans-45" transform="translate(108.09375 0)"/>
      <use xlink:href="#DejaVuSans-58" transform="translate(171.578125 0)"/>
      <use xlink:href="#DejaVuSans-57" transform="translate(234.953125 0)"/>
      <use xlink:href="#DejaVuSans-44" transform="translate(274.15625 0)"/>
      <use xlink:href="#DejaVuSans-55" transform="translate(335.4375 0)"/>
      <use xlink:href="#DejaVuSans-5c" transform="translate(376.546875 0)"/>
      <use xlink:href="#DejaVuSans-3" transform="translate(435.734375 0)"/>
      <use xlink:href="#DejaVuSans-47" transform="translate(467.515625 0)"/>
      <use xlink:href="#DejaVuSans-48" transform="translate(531 0)"/>
      <use xlink:href="#DejaVuSans-4f" transform="translate(592.53125 0)"/>
      <use xlink:href="#DejaVuSans-4c" transform="translate(620.3125 0)"/>
      <use xlink:href="#DejaVuSans-59" transform="translate(648.09375 0)"/>
      <use xlink:href="#DejaVuSans-48" transform="translate(707.28125 0)"/>
      <use xlink:href="#DejaVuSans-55" transform="translate(768.8125 0)"/>
      <use xlink:href="#DejaVuSans-5c" transform="translate(809.921875 0)"/>
     </g>
    </g>
   </g>
   <g id="text_3">
    <g id="patch_13">
     <path d="M 292.313643 58.662193 
L 376.694815 58.662193 
Q 378.644815 58.662193 378.644815 56.712193 
L 378.644815 50.211685 
Q 378.644815 48.261685 376.694815 48.261685 
L 292.313643 48.261685 
Q 290.363643 48.261685 290.363643 50.211685 
L 290.363643 56.712193 
Q 290.363643 58.662193 292.313643 58.662193 
z
" clip-path="url(#p3a7d417612)" style="fill: #ffffff; stroke: #ffffff; stroke-linejoin: miter"/>
    </g>
    <g clip-path="url(#p3a7d417612)">
     <!-- river discharge / nutrients -->
     <g transform="translate(292.313643 55.150669) scale(0.065 -0.065)">
      <defs>
       <path id="DejaVuSans-56" d="M 2834 3397 
L 2834 2853 
Q 2591 2978 2328 3040 
Q 2066 3103 1784 3103 
Q 1356 3103 1142 2972 
Q 928 2841 928 2578 
Q 928 2378 1081 2264 
Q 1234 2150 1697 2047 
L 1894 2003 
Q 2506 1872 2764 1633 
Q 3022 1394 3022 966 
Q 3022 478 2636 193 
Q 2250 -91 1575 -91 
Q 1294 -91 989 -36 
Q 684 19 347 128 
L 347 722 
Q 666 556 975 473 
Q 1284 391 1588 391 
Q 1994 391 2212 530 
Q 2431 669 2431 922 
Q 2431 1156 2273 1281 
Q 2116 1406 1581 1522 
L 1381 1569 
Q 847 1681 609 1914 
Q 372 2147 372 2553 
Q 372 3047 722 3315 
Q 1072 3584 1716 3584 
Q 2034 3584 2315 3537 
Q 2597 3491 2834 3397 
z
" transform="scale(0.015625)"/>
       <path id="DejaVuSans-46" d="M 3122 3366 
L 3122 2828 
Q 2878 2963 2633 3030 
Q 2388 3097 2138 3097 
Q 1578 3097 1268 2742 
Q 959 2388 959 1747 
Q 959 1106 1268 751 
Q 1578 397 2138 397 
Q 2388 397 2633 464 
Q 2878 531 3122 666 
L 3122 134 
Q 2881 22 2623 -34 
Q 2366 -91 2075 -91 
Q 1284 -91 818 406 
Q 353 903 353 1747 
Q 353 2603 823 3093 
Q 1294 3584 2113 3584 
Q 2378 3584 2631 3529 
Q 2884 3475 3122 3366 
z
" transform="scale(0.015625)"/>
       <path id="DejaVuSans-4b" d="M 3513 2113 
L 3513 0 
L 2938 0 
L 2938 2094 
Q 2938 2591 2744 2837 
Q 2550 3084 2163 3084 
Q 1697 3084 1428 2787 
Q 1159 2491 1159 1978 
L 1159 0 
L 581 0 
L 581 4863 
L 1159 4863 
L 1159 2956 
Q 1366 3272 1645 3428 
Q 1925 3584 2291 3584 
Q 2894 3584 3203 3211 
Q 3513 2838 3513 2113 
z
" transform="scale(0.015625)"/>
      </defs>
      <use xlink:href="#DejaVuSans-55"/>
      <use xlink:href="#DejaVuSans-4c" transform="translate(41.109375 0)"/>
      <use xlink:href="#DejaVuSans-59" transform="translate(68.890625 0)"/>
      <use xlink:href="#DejaVuSans-48" transform="translate(128.078125 0)"/>
      <use xlink:href="#DejaVuSans-55" transform="translate(189.609375 0)"/>
      <use xlink:href="#DejaVuSans-3" transform="translate(230.71875 0)"/>
      <use xlink:href="#DejaVuSans-47" transform="translate(262.5 0)"/>
      <use xlink:href="#DejaVuSans-4c" transform="translate(325.984375 0)"/>
      <use xlink:href="#DejaVuSans-56" transform="translate(353.765625 0)"/>
      <use xlink:href="#DejaVuSans-46" transform="translate(405.859375 0)"/>
      <use xlink:href="#DejaVuSans-4b" transform="translate(460.84375 0)"/>
      <use xlink:href="#DejaVuSans-44" transform="translate(524.21875 0)"/>
      <use xlink:href="#DejaVuSans-55" transform="translate(585.5 0)"/>
      <use xlink:href="#DejaVuSans-4a" transform="translate(624.859375 0)"/>
      <use xlink:href="#DejaVuSans-48" transform="translate(688.34375 0)"/>
      <use xlink:href="#DejaVuSans-3" transform="translate(749.875 0)"/>
      <use xlink:href="#DejaVuSans-12" transform="translate(781.65625 0)"/>
      <use xlink:href="#DejaVuSans-3" transform="translate(815.34375 0)"/>
      <use xlink:href="#DejaVuSans-51" transform="translate(847.125 0)"/>
      <use xlink:href="#DejaVuSans-58" transform="translate(910.5 0)"/>
      <use xlink:href="#DejaVuSans-57" transform="translate(973.875 0)"/>
      <use xlink:href="#DejaVuSans-55" transform="translate(1013.078125 0)"/>
      <use xlink:href="#DejaVuSans-4c" transform="translate(1054.1875 0)"/>
      <use xlink:href="#DejaVuSans-48" transform="translate(1081.96875 0)"/>
      <use xlink:href="#DejaVuSans-51" transform="translate(1143.5 0)"/>
      <use xlink:href="#DejaVuSans-57" transform="translate(1206.875 0)"/>
      <use xlink:href="#DejaVuSans-56" transform="translate(1246.078125 0)"/>
     </g>
    </g>
   </g>
   <g id="text_4">
    <g id="patch_14">
     <path d="M 401.941972 58.662193 
L 463.058222 58.662193 
Q 465.008222 58.662193 465.008222 56.712193 
L 465.008222 50.211685 
Q 465.008222 48.261685 463.058222 48.261685 
L 401.941972 48.261685 
Q 399.991972 48.261685 399.991972 50.211685 
L 399.991972 56.712193 
Q 399.991972 58.662193 401.941972 58.662193 
z
" clip-path="url(#p3a7d417612)" style="fill: #ffffff; stroke: #ffffff; stroke-linejoin: miter"/>
    </g>
    <g clip-path="url(#p3a7d417612)">
     <!-- bay-lake exchange -->
     <g transform="translate(401.941972 55.150669) scale(0.065 -0.065)">
      <defs>
       <path id="DejaVuSans-10" d="M 313 2009 
L 1997 2009 
L 1997 1497 
L 313 1497 
L 313 2009 
z
" transform="scale(0.015625)"/>
       <path id="DejaVuSans-4e" d="M 581 4863 
L 1159 4863 
L 1159 1991 
L 2875 3500 
L 3609 3500 
L 1753 1863 
L 3688 0 
L 2938 0 
L 1159 1709 
L 1159 0 
L 581 0 
L 581 4863 
z
" transform="scale(0.015625)"/>
       <path id="DejaVuSans-5b" d="M 3513 3500 
L 2247 1797 
L 3578 0 
L 2900 0 
L 1881 1375 
L 863 0 
L 184 0 
L 1544 1831 
L 300 3500 
L 978 3500 
L 1906 2253 
L 2834 3500 
L 3513 3500 
z
" transform="scale(0.015625)"/>
      </defs>
      <use xlink:href="#DejaVuSans-45"/>
      <use xlink:href="#DejaVuSans-44" transform="translate(63.484375 0)"/>
      <use xlink:href="#DejaVuSans-5c" transform="translate(124.765625 0)"/>
      <use xlink:href="#DejaVuSans-10" transform="translate(182.203125 0)"/>
      <use xlink:href="#DejaVuSans-4f" transform="translate(218.28125 0)"/>
      <use xlink:href="#DejaVuSans-44" transform="translate(246.0625 0)"/>
      <use xlink:href="#DejaVuSans-4e" transform="translate(307.34375 0)"/>
      <use xlink:href="#DejaVuSans-48" transform="translate(361.6875 0)"/>
      <use xlink:href="#DejaVuSans-3" transform="translate(423.21875 0)"/>
      <use xlink:href="#DejaVuSans-48" transform="translate(455 0)"/>
      <use xlink:href="#DejaVuSans-5b" transform="translate(514.78125 0)"/>
      <use xlink:href="#DejaVuSans-46" transform="translate(572.21875 0)"/>
      <use xlink:href="#DejaVuSans-4b" transform="translate(627.203125 0)"/>
      <use xlink:href="#DejaVuSans-44" transform="translate(690.578125 0)"/>
      <use xlink:href="#DejaVuSans-51" transform="translate(751.859375 0)"/>
      <use xlink:href="#DejaVuSans-4a" transform="translate(815.234375 0)"/>
      <use xlink:href="#DejaVuSans-48" transform="translate(878.71875 0)"/>
     </g>
    </g>
   </g>
   <g id="text_5">
    <g id="patch_15">
     <path d="M 472.930339 58.662193 
L 588.061589 58.662193 
Q 590.011589 58.662193 590.011589 56.712193 
L 590.011589 50.211685 
Q 590.011589 48.261685 588.061589 48.261685 
L 472.930339 48.261685 
Q 470.980339 48.261685 470.980339 50.211685 
L 470.980339 56.712193 
Q 470.980339 58.662193 472.930339 58.662193 
z
" clip-path="url(#p3a7d417612)" style="fill: #ffffff; stroke: #ffffff; stroke-linejoin: miter"/>
    </g>
    <g clip-path="url(#p3a7d417612)">
     <!-- nutrient-driven ecological response -->
     <g transform="translate(472.930339 55.150669) scale(0.065 -0.065)">
      <defs>
       <path id="DejaVuSans-53" d="M 1159 525 
L 1159 -1331 
L 581 -1331 
L 581 3500 
L 1159 3500 
L 1159 2969 
Q 1341 3281 1617 3432 
Q 1894 3584 2278 3584 
Q 2916 3584 3314 3078 
Q 3713 2572 3713 1747 
Q 3713 922 3314 415 
Q 2916 -91 2278 -91 
Q 1894 -91 1617 61 
Q 1341 213 1159 525 
z
M 3116 1747 
Q 3116 2381 2855 2742 
Q 2594 3103 2138 3103 
Q 1681 3103 1420 2742 
Q 1159 2381 1159 1747 
Q 1159 1113 1420 752 
Q 1681 391 2138 391 
Q 2594 391 2855 752 
Q 3116 1113 3116 1747 
z
" transform="scale(0.015625)"/>
      </defs>
      <use xlink:href="#DejaVuSans-51"/>
      <use xlink:href="#DejaVuSans-58" transform="translate(63.375 0)"/>
      <use xlink:href="#DejaVuSans-57" transform="translate(126.75 0)"/>
      <use xlink:href="#DejaVuSans-55" transform="translate(165.953125 0)"/>
      <use xlink:href="#DejaVuSans-4c" transform="translate(207.0625 0)"/>
      <use xlink:href="#DejaVuSans-48" transform="translate(234.84375 0)"/>
      <use xlink:href="#DejaVuSans-51" transform="translate(296.375 0)"/>
      <use xlink:href="#DejaVuSans-57" transform="translate(359.75 0)"/>
      <use xlink:href="#DejaVuSans-10" transform="translate(398.953125 0)"/>
      <use xlink:href="#DejaVuSans-47" transform="translate(435.03125 0)"/>
      <use xlink:href="#DejaVuSans-55" transform="translate(498.515625 0)"/>
      <use xlink:href="#DejaVuSans-4c" transform="translate(539.625 0)"/>
      <use xlink:href="#DejaVuSans-59" transform="translate(567.40625 0)"/>
      <use xlink:href="#DejaVuSans-48" transform="translate(626.59375 0)"/>
      <use xlink:href="#DejaVuSans-51" transform="translate(688.125 0)"/>
      <use xlink:href="#DejaVuSans-3" transform="translate(751.5 0)"/>
      <use xlink:href="#DejaVuSans-48" transform="translate(783.28125 0)"/>
      <use xlink:href="#DejaVuSans-46" transform="translate(844.8125 0)"/>
      <use xlink:href="#DejaVuSans-52" transform="translate(899.796875 0)"/>
      <use xlink:href="#DejaVuSans-4f" transform="translate(960.984375 0)"/>
      <use xlink:href="#DejaVuSans-52" transform="translate(988.765625 0)"/>
      <use xlink:href="#DejaVuSans-4a" transform="translate(1049.953125 0)"/>
      <use xlink:href="#DejaVuSans-4c" transform="translate(1113.4375 0)"/>
      <use xlink:href="#DejaVuSans-46" transform="translate(1141.21875 0)"/>
      <use xlink:href="#DejaVuSans-44" transform="translate(1196.203125 0)"/>
      <use xlink:href="#DejaVuSans-4f" transform="translate(1257.484375 0)"/>
      <use xlink:href="#DejaVuSans-3" transform="translate(1285.265625 0)"/>
      <use xlink:href="#DejaVuSans-55" transform="translate(1317.046875 0)"/>
      <use xlink:href="#DejaVuSans-48" transform="translate(1355.953125 0)"/>
      <use xlink:href="#DejaVuSans-56" transform="translate(1417.484375 0)"/>
      <use xlink:href="#DejaVuSans-53" transform="translate(1469.578125 0)"/>
      <use xlink:href="#DejaVuSans-52" transform="translate(1533.0625 0)"/>
      <use xlink:href="#DejaVuSans-51" transform="translate(1594.25 0)"/>
      <use xlink:href="#DejaVuSans-56" transform="translate(1657.625 0)"/>
      <use xlink:href="#DejaVuSans-48" transform="translate(1709.71875 0)"/>
     </g>
    </g>
   </g>
   <g id="text_6">
    <g id="patch_16">
     <path d="M 599.950231 58.662193 
L 657.033434 58.662193 
Q 658.983434 58.662193 658.983434 56.712193 
L 658.983434 50.211685 
Q 658.983434 48.261685 657.033434 48.261685 
L 599.950231 48.261685 
Q 598.000231 48.261685 598.000231 50.211685 
L 598.000231 56.712193 
Q 598.000231 58.662193 599.950231 58.662193 
z
" clip-path="url(#p3a7d417612)" style="fill: #ffffff; stroke: #ffffff; stroke-linejoin: miter"/>
    </g>
    <g clip-path="url(#p3a7d417612)">
     <!-- raw-water hazard -->
     <g transform="translate(599.950231 55.150669) scale(0.065 -0.065)">
      <defs>
       <path id="DejaVuSans-5a" d="M 269 3500 
L 844 3500 
L 1563 769 
L 2278 3500 
L 2956 3500 
L 3675 769 
L 4391 3500 
L 4966 3500 
L 4050 0 
L 3372 0 
L 2619 2869 
L 1863 0 
L 1184 0 
L 269 3500 
z
" transform="scale(0.015625)"/>
       <path id="DejaVuSans-5d" d="M 353 3500 
L 3084 3500 
L 3084 2975 
L 922 459 
L 3084 459 
L 3084 0 
L 275 0 
L 275 525 
L 2438 3041 
L 353 3041 
L 353 3500 
z
" transform="scale(0.015625)"/>
      </defs>
      <use xlink:href="#DejaVuSans-55"/>
      <use xlink:href="#DejaVuSans-44" transform="translate(41.109375 0)"/>
      <use xlink:href="#DejaVuSans-5a" transform="translate(102.390625 0)"/>
      <use xlink:href="#DejaVuSans-10" transform="translate(184.171875 0)"/>
      <use xlink:href="#DejaVuSans-5a" transform="translate(220.25 0)"/>
      <use xlink:href="#DejaVuSans-44" transform="translate(302.03125 0)"/>
      <use xlink:href="#DejaVuSans-57" transform="translate(363.3125 0)"/>
      <use xlink:href="#DejaVuSans-48" transform="translate(402.515625 0)"/>
      <use xlink:href="#DejaVuSans-55" transform="translate(464.046875 0)"/>
      <use xlink:href="#DejaVuSans-3" transform="translate(505.15625 0)"/>
      <use xlink:href="#DejaVuSans-4b" transform="translate(536.9375 0)"/>
      <use xlink:href="#DejaVuSans-44" transform="translate(600.3125 0)"/>
      <use xlink:href="#DejaVuSans-5d" transform="translate(661.59375 0)"/>
      <use xlink:href="#DejaVuSans-44" transform="translate(714.078125 0)"/>
      <use xlink:href="#DejaVuSans-55" transform="translate(775.359375 0)"/>
      <use xlink:href="#DejaVuSans-47" transform="translate(814.71875 0)"/>
     </g>
    </g>
   </g>
   <g id="text_7">
    <g id="patch_17">
     <path d="M 710.20977 58.661939 
L 742.76563 58.661939 
Q 744.71563 58.661939 744.71563 56.711939 
L 744.71563 50.211939 
Q 744.71563 48.261939 742.76563 48.261939 
L 710.20977 48.261939 
Q 708.25977 48.261939 708.25977 50.211939 
L 708.25977 56.711939 
Q 708.25977 58.661939 710.20977 58.661939 
z
" clip-path="url(#p3a7d417612)" style="fill: #ffffff; stroke: #ffffff; stroke-linejoin: miter"/>
    </g>
    <g clip-path="url(#p3a7d417612)">
     <!-- raw water -->
     <g transform="translate(710.20977 55.150415) scale(0.065 -0.065)">
      <use xlink:href="#DejaVuSans-55"/>
      <use xlink:href="#DejaVuSans-44" transform="translate(41.109375 0)"/>
      <use xlink:href="#DejaVuSans-5a" transform="translate(102.390625 0)"/>
      <use xlink:href="#DejaVuSans-3" transform="translate(184.171875 0)"/>
      <use xlink:href="#DejaVuSans-5a" transform="translate(215.953125 0)"/>
      <use xlink:href="#DejaVuSans-44" transform="translate(297.734375 0)"/>
      <use xlink:href="#DejaVuSans-57" transform="translate(359.015625 0)"/>
      <use xlink:href="#DejaVuSans-48" transform="translate(398.21875 0)"/>
      <use xlink:href="#DejaVuSans-55" transform="translate(459.75 0)"/>
     </g>
    </g>
   </g>
   <g id="text_8">
    <g id="patch_18">
     <path d="M 801.907747 58.662193 
L 847.059388 58.662193 
Q 849.009388 58.662193 849.009388 56.712193 
L 849.009388 50.211685 
Q 849.009388 48.261685 847.059388 48.261685 
L 801.907747 48.261685 
Q 799.957747 48.261685 799.957747 50.211685 
L 799.957747 56.712193 
Q 799.957747 58.662193 801.907747 58.662193 
z
" clip-path="url(#p3a7d417612)" style="fill: #ffffff; stroke: #ffffff; stroke-linejoin: miter"/>
    </g>
    <g clip-path="url(#p3a7d417612)">
     <!-- potable water -->
     <g transform="translate(801.907747 55.150669) scale(0.065 -0.065)">
      <use xlink:href="#DejaVuSans-53"/>
      <use xlink:href="#DejaVuSans-52" transform="translate(63.484375 0)"/>
      <use xlink:href="#DejaVuSans-57" transform="translate(124.671875 0)"/>
      <use xlink:href="#DejaVuSans-44" transform="translate(163.875 0)"/>
      <use xlink:href="#DejaVuSans-45" transform="translate(225.15625 0)"/>
      <use xlink:href="#DejaVuSans-4f" transform="translate(288.640625 0)"/>
      <use xlink:href="#DejaVuSans-48" transform="translate(316.421875 0)"/>
      <use xlink:href="#DejaVuSans-3" transform="translate(377.953125 0)"/>
      <use xlink:href="#DejaVuSans-5a" transform="translate(409.734375 0)"/>
      <use xlink:href="#DejaVuSans-44" transform="translate(491.515625 0)"/>
      <use xlink:href="#DejaVuSans-57" transform="translate(552.796875 0)"/>
      <use xlink:href="#DejaVuSans-48" transform="translate(592 0)"/>
      <use xlink:href="#DejaVuSans-55" transform="translate(653.53125 0)"/>
     </g>
    </g>
   </g>
   <g id="PathCollection_1">
    <defs>
     <path id="C0_0_f32e81268b" d="M 0 25.980762 
C 6.890179 25.980762 13.499081 23.243265 18.371173 18.371173 
C 23.243265 13.499081 25.980762 6.890179 25.980762 -0 
C 25.980762 -6.890179 23.243265 -13.499081 18.371173 -18.371173 
C 13.499081 -23.243265 6.890179 -25.980762 0 -25.980762 
C -6.890179 -25.980762 -13.499081 -23.243265 -18.371173 -18.371173 
C -23.243265 -13.499081 -25.980762 -6.890179 -25.980762 0 
C -25.980762 6.890179 -23.243265 13.499081 -18.371173 18.371173 
C -13.499081 23.243265 -6.890179 25.980762 0 25.980762 
z
"/>
    </defs>
    <g clip-path="url(#p3a7d417612)">
     <use xlink:href="#C0_0_f32e81268b" x="89.516529" y="53.461939" style="fill: #b9ddeb; stroke: #18333f"/>
    </g>
    <g clip-path="url(#p3a7d417612)">
     <use xlink:href="#C0_0_f32e81268b" x="187.512397" y="53.461939" style="fill: #b9ddeb; stroke: #18333f"/>
    </g>
    <g clip-path="url(#p3a7d417612)">
     <use xlink:href="#C0_0_f32e81268b" x="285.508264" y="53.461939" style="fill: #b9ddeb; stroke: #18333f"/>
    </g>
    <g clip-path="url(#p3a7d417612)">
     <use xlink:href="#C0_0_f32e81268b" x="383.504132" y="53.461939" style="fill: #b9ddeb; stroke: #18333f"/>
    </g>
    <g clip-path="url(#p3a7d417612)">
     <use xlink:href="#C0_0_f32e81268b" x="481.5" y="53.461939" style="fill: #b9ddeb; stroke: #18333f"/>
    </g>
    <g clip-path="url(#p3a7d417612)">
     <use xlink:href="#C0_0_f32e81268b" x="579.495868" y="53.461939" style="fill: #b9ddeb; stroke: #18333f"/>
    </g>
    <g clip-path="url(#p3a7d417612)">
     <use xlink:href="#C0_0_f32e81268b" x="677.491736" y="53.461939" style="fill: #b9ddeb; stroke: #18333f"/>
    </g>
    <g clip-path="url(#p3a7d417612)">
     <use xlink:href="#C0_0_f32e81268b" x="775.487603" y="53.461939" style="fill: #b9ddeb; stroke: #18333f"/>
    </g>
    <g clip-path="url(#p3a7d417612)">
     <use xlink:href="#C0_0_f32e81268b" x="873.483471" y="53.461939" style="fill: #b9ddeb; stroke: #18333f"/>
    </g>
    <g clip-path="url(#p3a7d417612)">
     <use xlink:href="#C0_0_f32e81268b" x="207.11157" y="328.37103" style="fill: #5c8d68; stroke: #18333f"/>
    </g>
   </g>
   <g id="text_9">
    <g clip-path="url(#p3a7d417612)">
     <!-- Agricultural -->
     <g transform="translate(65.157341 42.215519) scale(0.073 -0.073)">
      <defs>
       <path id="DejaVuSans-Bold-24" d="M 3419 850 
L 1538 850 
L 1241 0 
L 31 0 
L 1759 4666 
L 3194 4666 
L 4922 0 
L 3713 0 
L 3419 850 
z
M 1838 1716 
L 3116 1716 
L 2478 3572 
L 1838 1716 
z
" transform="scale(0.015625)"/>
       <path id="DejaVuSans-Bold-4a" d="M 2919 594 
Q 2688 288 2409 144 
Q 2131 0 1766 0 
Q 1125 0 706 504 
Q 288 1009 288 1791 
Q 288 2575 706 3076 
Q 1125 3578 1766 3578 
Q 2131 3578 2409 3434 
Q 2688 3291 2919 2981 
L 2919 3500 
L 4044 3500 
L 4044 353 
Q 4044 -491 3511 -936 
Q 2978 -1381 1966 -1381 
Q 1638 -1381 1331 -1331 
Q 1025 -1281 716 -1178 
L 716 -306 
Q 1009 -475 1290 -558 
Q 1572 -641 1856 -641 
Q 2406 -641 2662 -400 
Q 2919 -159 2919 353 
L 2919 594 
z
M 2181 2772 
Q 1834 2772 1640 2515 
Q 1447 2259 1447 1791 
Q 1447 1309 1634 1061 
Q 1822 813 2181 813 
Q 2531 813 2725 1069 
Q 2919 1325 2919 1791 
Q 2919 2259 2725 2515 
Q 2531 2772 2181 2772 
z
" transform="scale(0.015625)"/>
       <path id="DejaVuSans-Bold-55" d="M 3138 2547 
Q 2991 2616 2845 2648 
Q 2700 2681 2553 2681 
Q 2122 2681 1889 2404 
Q 1656 2128 1656 1613 
L 1656 0 
L 538 0 
L 538 3500 
L 1656 3500 
L 1656 2925 
Q 1872 3269 2151 3426 
Q 2431 3584 2822 3584 
Q 2878 3584 2943 3579 
Q 3009 3575 3134 3559 
L 3138 2547 
z
" transform="scale(0.015625)"/>
       <path id="DejaVuSans-Bold-4c" d="M 538 3500 
L 1656 3500 
L 1656 0 
L 538 0 
L 538 3500 
z
M 538 4863 
L 1656 4863 
L 1656 3950 
L 538 3950 
L 538 4863 
z
" transform="scale(0.015625)"/>
       <path id="DejaVuSans-Bold-46" d="M 3366 3391 
L 3366 2478 
Q 3138 2634 2908 2709 
Q 2678 2784 2431 2784 
Q 1963 2784 1702 2511 
Q 1441 2238 1441 1747 
Q 1441 1256 1702 982 
Q 1963 709 2431 709 
Q 2694 709 2930 787 
Q 3166 866 3366 1019 
L 3366 103 
Q 3103 6 2833 -42 
Q 2563 -91 2291 -91 
Q 1344 -91 809 395 
Q 275 881 275 1747 
Q 275 2613 809 3098 
Q 1344 3584 2291 3584 
Q 2566 3584 2833 3536 
Q 3100 3488 3366 3391 
z
" transform="scale(0.015625)"/>
       <path id="DejaVuSans-Bold-58" d="M 500 1363 
L 500 3500 
L 1625 3500 
L 1625 3150 
Q 1625 2866 1622 2436 
Q 1619 2006 1619 1863 
Q 1619 1441 1641 1255 
Q 1663 1069 1716 984 
Q 1784 875 1895 815 
Q 2006 756 2150 756 
Q 2500 756 2700 1025 
Q 2900 1294 2900 1772 
L 2900 3500 
L 4019 3500 
L 4019 0 
L 2900 0 
L 2900 506 
Q 2647 200 2364 54 
Q 2081 -91 1741 -91 
Q 1134 -91 817 281 
Q 500 653 500 1363 
z
" transform="scale(0.015625)"/>
       <path id="DejaVuSans-Bold-4f" d="M 538 4863 
L 1656 4863 
L 1656 0 
L 538 0 
L 538 4863 
z
" transform="scale(0.015625)"/>
       <path id="DejaVuSans-Bold-57" d="M 1759 4494 
L 1759 3500 
L 2913 3500 
L 2913 2700 
L 1759 2700 
L 1759 1216 
Q 1759 972 1856 886 
Q 1953 800 2241 800 
L 2816 800 
L 2816 0 
L 1856 0 
Q 1194 0 917 276 
Q 641 553 641 1216 
L 641 2700 
L 84 2700 
L 84 3500 
L 641 3500 
L 641 4494 
L 1759 4494 
z
" transform="scale(0.015625)"/>
       <path id="DejaVuSans-Bold-44" d="M 2106 1575 
Q 1756 1575 1579 1456 
Q 1403 1338 1403 1106 
Q 1403 894 1545 773 
Q 1688 653 1941 653 
Q 2256 653 2472 879 
Q 2688 1106 2688 1447 
L 2688 1575 
L 2106 1575 
z
M 3816 1997 
L 3816 0 
L 2688 0 
L 2688 519 
Q 2463 200 2181 54 
Q 1900 -91 1497 -91 
Q 953 -91 614 226 
Q 275 544 275 1050 
Q 275 1666 698 1953 
Q 1122 2241 2028 2241 
L 2688 2241 
L 2688 2328 
Q 2688 2594 2478 2717 
Q 2269 2841 1825 2841 
Q 1466 2841 1156 2769 
Q 847 2697 581 2553 
L 581 3406 
Q 941 3494 1303 3539 
Q 1666 3584 2028 3584 
Q 2975 3584 3395 3211 
Q 3816 2838 3816 1997 
z
" transform="scale(0.015625)"/>
      </defs>
      <use xlink:href="#DejaVuSans-Bold-24"/>
      <use xlink:href="#DejaVuSans-Bold-4a" transform="translate(77.390625 0)"/>
      <use xlink:href="#DejaVuSans-Bold-55" transform="translate(148.96875 0)"/>
      <use xlink:href="#DejaVuSans-Bold-4c" transform="translate(198.28125 0)"/>
      <use xlink:href="#DejaVuSans-Bold-46" transform="translate(232.5625 0)"/>
      <use xlink:href="#DejaVuSans-Bold-58" transform="translate(291.84375 0)"/>
      <use xlink:href="#DejaVuSans-Bold-4f" transform="translate(363.03125 0)"/>
      <use xlink:href="#DejaVuSans-Bold-57" transform="translate(397.3125 0)"/>
      <use xlink:href="#DejaVuSans-Bold-58" transform="translate(445.109375 0)"/>
      <use xlink:href="#DejaVuSans-Bold-55" transform="translate(516.296875 0)"/>
      <use xlink:href="#DejaVuSans-Bold-44" transform="translate(565.609375 0)"/>
      <use xlink:href="#DejaVuSans-Bold-4f" transform="translate(633.09375 0)"/>
     </g>
    </g>
    <g clip-path="url(#p3a7d417612)">
     <!-- and -->
     <g transform="translate(81.842404 50.977515) scale(0.073 -0.073)">
      <defs>
       <path id="DejaVuSans-Bold-51" d="M 4056 2131 
L 4056 0 
L 2931 0 
L 2931 347 
L 2931 1631 
Q 2931 2084 2911 2256 
Q 2891 2428 2841 2509 
Q 2775 2619 2662 2680 
Q 2550 2741 2406 2741 
Q 2056 2741 1856 2470 
Q 1656 2200 1656 1722 
L 1656 0 
L 538 0 
L 538 3500 
L 1656 3500 
L 1656 2988 
Q 1909 3294 2193 3439 
Q 2478 3584 2822 3584 
Q 3428 3584 3742 3212 
Q 4056 2841 4056 2131 
z
" transform="scale(0.015625)"/>
       <path id="DejaVuSans-Bold-47" d="M 2919 2988 
L 2919 4863 
L 4044 4863 
L 4044 0 
L 2919 0 
L 2919 506 
Q 2688 197 2409 53 
Q 2131 -91 1766 -91 
Q 1119 -91 703 423 
Q 288 938 288 1747 
Q 288 2556 703 3070 
Q 1119 3584 1766 3584 
Q 2128 3584 2408 3439 
Q 2688 3294 2919 2988 
z
M 2181 722 
Q 2541 722 2730 984 
Q 2919 1247 2919 1747 
Q 2919 2247 2730 2509 
Q 2541 2772 2181 2772 
Q 1825 2772 1636 2509 
Q 1447 2247 1447 1747 
Q 1447 1247 1636 984 
Q 1825 722 2181 722 
z
" transform="scale(0.015625)"/>
      </defs>
      <use xlink:href="#DejaVuSans-Bold-44"/>
      <use xlink:href="#DejaVuSans-Bold-51" transform="translate(67.484375 0)"/>
      <use xlink:href="#DejaVuSans-Bold-47" transform="translate(138.671875 0)"/>
     </g>
    </g>
    <g clip-path="url(#p3a7d417612)">
     <!-- urban -->
     <g transform="translate(77.444154 59.739511) scale(0.073 -0.073)">
      <defs>
       <path id="DejaVuSans-Bold-45" d="M 2400 722 
Q 2759 722 2948 984 
Q 3138 1247 3138 1747 
Q 3138 2247 2948 2509 
Q 2759 2772 2400 2772 
Q 2041 2772 1848 2508 
Q 1656 2244 1656 1747 
Q 1656 1250 1848 986 
Q 2041 722 2400 722 
z
M 1656 2988 
Q 1888 3294 2169 3439 
Q 2450 3584 2816 3584 
Q 3463 3584 3878 3070 
Q 4294 2556 4294 1747 
Q 4294 938 3878 423 
Q 3463 -91 2816 -91 
Q 2450 -91 2169 54 
Q 1888 200 1656 506 
L 1656 0 
L 538 0 
L 538 4863 
L 1656 4863 
L 1656 2988 
z
" transform="scale(0.015625)"/>
      </defs>
      <use xlink:href="#DejaVuSans-Bold-58"/>
      <use xlink:href="#DejaVuSans-Bold-55" transform="translate(71.1875 0)"/>
      <use xlink:href="#DejaVuSans-Bold-45" transform="translate(120.5 0)"/>
      <use xlink:href="#DejaVuSans-Bold-44" transform="translate(192.078125 0)"/>
      <use xlink:href="#DejaVuSans-Bold-51" transform="translate(259.5625 0)"/>
     </g>
    </g>
    <g clip-path="url(#p3a7d417612)">
     <!-- land -->
     <g transform="translate(80.591138 68.501507) scale(0.073 -0.073)">
      <use xlink:href="#DejaVuSans-Bold-4f"/>
      <use xlink:href="#DejaVuSans-Bold-44" transform="translate(34.28125 0)"/>
      <use xlink:href="#DejaVuSans-Bold-51" transform="translate(101.765625 0)"/>
      <use xlink:href="#DejaVuSans-Bold-47" transform="translate(172.953125 0)"/>
     </g>
    </g>
   </g>
   <g id="text_10">
    <g clip-path="url(#p3a7d417612)">
     <!-- Drainage -->
     <g transform="translate(168.818123 46.596517) scale(0.073 -0.073)">
      <defs>
       <path id="DejaVuSans-Bold-27" d="M 1791 3756 
L 1791 909 
L 2222 909 
Q 2959 909 3348 1275 
Q 3738 1641 3738 2338 
Q 3738 3031 3350 3393 
Q 2963 3756 2222 3756 
L 1791 3756 
z
M 588 4666 
L 1856 4666 
Q 2919 4666 3439 4514 
Q 3959 4363 4331 4000 
Q 4659 3684 4818 3271 
Q 4978 2859 4978 2338 
Q 4978 1809 4818 1395 
Q 4659 981 4331 666 
Q 3956 303 3431 151 
Q 2906 0 1856 0 
L 588 0 
L 588 4666 
z
" transform="scale(0.015625)"/>
       <path id="DejaVuSans-Bold-48" d="M 4031 1759 
L 4031 1441 
L 1416 1441 
Q 1456 1047 1700 850 
Q 1944 653 2381 653 
Q 2734 653 3104 758 
Q 3475 863 3866 1075 
L 3866 213 
Q 3469 63 3072 -14 
Q 2675 -91 2278 -91 
Q 1328 -91 801 392 
Q 275 875 275 1747 
Q 275 2603 792 3093 
Q 1309 3584 2216 3584 
Q 3041 3584 3536 3087 
Q 4031 2591 4031 1759 
z
M 2881 2131 
Q 2881 2450 2695 2645 
Q 2509 2841 2209 2841 
Q 1884 2841 1681 2658 
Q 1478 2475 1428 2131 
L 2881 2131 
z
" transform="scale(0.015625)"/>
      </defs>
      <use xlink:href="#DejaVuSans-Bold-27"/>
      <use xlink:href="#DejaVuSans-Bold-55" transform="translate(83.015625 0)"/>
      <use xlink:href="#DejaVuSans-Bold-44" transform="translate(132.328125 0)"/>
      <use xlink:href="#DejaVuSans-Bold-4c" transform="translate(199.8125 0)"/>
      <use xlink:href="#DejaVuSans-Bold-51" transform="translate(234.09375 0)"/>
      <use xlink:href="#DejaVuSans-Bold-44" transform="translate(305.28125 0)"/>
      <use xlink:href="#DejaVuSans-Bold-4a" transform="translate(372.765625 0)"/>
      <use xlink:href="#DejaVuSans-Bold-48" transform="translate(444.34375 0)"/>
     </g>
    </g>
    <g clip-path="url(#p3a7d417612)">
     <!-- and -->
     <g transform="translate(179.838272 55.358513) scale(0.073 -0.073)">
      <use xlink:href="#DejaVuSans-Bold-44"/>
      <use xlink:href="#DejaVuSans-Bold-51" transform="translate(67.484375 0)"/>
      <use xlink:href="#DejaVuSans-Bold-47" transform="translate(138.671875 0)"/>
     </g>
    </g>
    <g clip-path="url(#p3a7d417612)">
     <!-- tributaries -->
     <g transform="translate(165.598709 64.120509) scale(0.073 -0.073)">
      <defs>
       <path id="DejaVuSans-Bold-56" d="M 3272 3391 
L 3272 2541 
Q 2913 2691 2578 2766 
Q 2244 2841 1947 2841 
Q 1628 2841 1473 2761 
Q 1319 2681 1319 2516 
Q 1319 2381 1436 2309 
Q 1553 2238 1856 2203 
L 2053 2175 
Q 2913 2066 3209 1816 
Q 3506 1566 3506 1031 
Q 3506 472 3093 190 
Q 2681 -91 1863 -91 
Q 1516 -91 1145 -36 
Q 775 19 384 128 
L 384 978 
Q 719 816 1070 734 
Q 1422 653 1784 653 
Q 2113 653 2278 743 
Q 2444 834 2444 1013 
Q 2444 1163 2330 1236 
Q 2216 1309 1875 1350 
L 1678 1375 
Q 931 1469 631 1722 
Q 331 1975 331 2491 
Q 331 3047 712 3315 
Q 1094 3584 1881 3584 
Q 2191 3584 2531 3537 
Q 2872 3491 3272 3391 
z
" transform="scale(0.015625)"/>
      </defs>
      <use xlink:href="#DejaVuSans-Bold-57"/>
      <use xlink:href="#DejaVuSans-Bold-55" transform="translate(47.796875 0)"/>
      <use xlink:href="#DejaVuSans-Bold-4c" transform="translate(97.109375 0)"/>
      <use xlink:href="#DejaVuSans-Bold-45" transform="translate(131.390625 0)"/>
      <use xlink:href="#DejaVuSans-Bold-58" transform="translate(202.96875 0)"/>
      <use xlink:href="#DejaVuSans-Bold-57" transform="translate(274.15625 0)"/>
      <use xlink:href="#DejaVuSans-Bold-44" transform="translate(321.953125 0)"/>
      <use xlink:href="#DejaVuSans-Bold-55" transform="translate(389.4375 0)"/>
      <use xlink:href="#DejaVuSans-Bold-4c" transform="translate(438.75 0)"/>
      <use xlink:href="#DejaVuSans-Bold-48" transform="translate(473.03125 0)"/>
      <use xlink:href="#DejaVuSans-Bold-56" transform="translate(540.859375 0)"/>
     </g>
    </g>
   </g>
   <g id="text_11">
    <g clip-path="url(#p3a7d417612)">
     <!-- Maumee -->
     <g transform="translate(268.059554 50.97723) scale(0.073 -0.073)">
      <defs>
       <path id="DejaVuSans-Bold-30" d="M 588 4666 
L 2119 4666 
L 3181 2169 
L 4250 4666 
L 5778 4666 
L 5778 0 
L 4641 0 
L 4641 3413 
L 3566 897 
L 2803 897 
L 1728 3413 
L 1728 0 
L 588 0 
L 588 4666 
z
" transform="scale(0.015625)"/>
       <path id="DejaVuSans-Bold-50" d="M 3781 2919 
Q 3994 3244 4286 3414 
Q 4578 3584 4928 3584 
Q 5531 3584 5847 3212 
Q 6163 2841 6163 2131 
L 6163 0 
L 5038 0 
L 5038 1825 
Q 5041 1866 5042 1909 
Q 5044 1953 5044 2034 
Q 5044 2406 4934 2573 
Q 4825 2741 4581 2741 
Q 4263 2741 4089 2478 
Q 3916 2216 3909 1719 
L 3909 0 
L 2784 0 
L 2784 1825 
Q 2784 2406 2684 2573 
Q 2584 2741 2328 2741 
Q 2006 2741 1831 2477 
Q 1656 2213 1656 1722 
L 1656 0 
L 531 0 
L 531 3500 
L 1656 3500 
L 1656 2988 
Q 1863 3284 2130 3434 
Q 2397 3584 2719 3584 
Q 3081 3584 3359 3409 
Q 3638 3234 3781 2919 
z
" transform="scale(0.015625)"/>
      </defs>
      <use xlink:href="#DejaVuSans-Bold-30"/>
      <use xlink:href="#DejaVuSans-Bold-44" transform="translate(99.515625 0)"/>
      <use xlink:href="#DejaVuSans-Bold-58" transform="translate(167 0)"/>
      <use xlink:href="#DejaVuSans-Bold-50" transform="translate(238.1875 0)"/>
      <use xlink:href="#DejaVuSans-Bold-48" transform="translate(342.390625 0)"/>
      <use xlink:href="#DejaVuSans-Bold-48" transform="translate(410.21875 0)"/>
     </g>
    </g>
    <g clip-path="url(#p3a7d417612)">
     <!-- River -->
     <g transform="translate(274.791522 59.739226) scale(0.073 -0.073)">
      <defs>
       <path id="DejaVuSans-Bold-35" d="M 2297 2597 
Q 2675 2597 2839 2737 
Q 3003 2878 3003 3200 
Q 3003 3519 2839 3656 
Q 2675 3794 2297 3794 
L 1791 3794 
L 1791 2597 
L 2297 2597 
z
M 1791 1766 
L 1791 0 
L 588 0 
L 588 4666 
L 2425 4666 
Q 3347 4666 3776 4356 
Q 4206 4047 4206 3378 
Q 4206 2916 3982 2619 
Q 3759 2322 3309 2181 
Q 3556 2125 3751 1926 
Q 3947 1728 4147 1325 
L 4800 0 
L 3519 0 
L 2950 1159 
Q 2778 1509 2601 1637 
Q 2425 1766 2131 1766 
L 1791 1766 
z
" transform="scale(0.015625)"/>
       <path id="DejaVuSans-Bold-59" d="M 97 3500 
L 1216 3500 
L 2088 1081 
L 2956 3500 
L 4078 3500 
L 2700 0 
L 1472 0 
L 97 3500 
z
" transform="scale(0.015625)"/>
      </defs>
      <use xlink:href="#DejaVuSans-Bold-35"/>
      <use xlink:href="#DejaVuSans-Bold-4c" transform="translate(77 0)"/>
      <use xlink:href="#DejaVuSans-Bold-59" transform="translate(111.28125 0)"/>
      <use xlink:href="#DejaVuSans-Bold-48" transform="translate(176.46875 0)"/>
      <use xlink:href="#DejaVuSans-Bold-55" transform="translate(244.296875 0)"/>
     </g>
    </g>
   </g>
   <g id="text_12">
    <g clip-path="url(#p3a7d417612)">
     <!-- Maumee -->
     <g transform="translate(366.055421 50.977515) scale(0.073 -0.073)">
      <use xlink:href="#DejaVuSans-Bold-30"/>
      <use xlink:href="#DejaVuSans-Bold-44" transform="translate(99.515625 0)"/>
      <use xlink:href="#DejaVuSans-Bold-58" transform="translate(167 0)"/>
      <use xlink:href="#DejaVuSans-Bold-50" transform="translate(238.1875 0)"/>
      <use xlink:href="#DejaVuSans-Bold-48" transform="translate(342.390625 0)"/>
      <use xlink:href="#DejaVuSans-Bold-48" transform="translate(410.21875 0)"/>
     </g>
    </g>
    <g clip-path="url(#p3a7d417612)">
     <!-- Bay -->
     <g transform="translate(375.991976 59.738941) scale(0.073 -0.073)">
      <defs>
       <path id="DejaVuSans-Bold-25" d="M 2456 2859 
Q 2741 2859 2887 2984 
Q 3034 3109 3034 3353 
Q 3034 3594 2887 3720 
Q 2741 3847 2456 3847 
L 1791 3847 
L 1791 2859 
L 2456 2859 
z
M 2497 819 
Q 2859 819 3042 972 
Q 3225 1125 3225 1434 
Q 3225 1738 3044 1889 
Q 2863 2041 2497 2041 
L 1791 2041 
L 1791 819 
L 2497 819 
z
M 3616 2497 
Q 4003 2384 4215 2081 
Q 4428 1778 4428 1338 
Q 4428 663 3972 331 
Q 3516 0 2584 0 
L 588 0 
L 588 4666 
L 2394 4666 
Q 3366 4666 3802 4372 
Q 4238 4078 4238 3431 
Q 4238 3091 4078 2852 
Q 3919 2613 3616 2497 
z
" transform="scale(0.015625)"/>
       <path id="DejaVuSans-Bold-5c" d="M 78 3500 
L 1197 3500 
L 2138 1125 
L 2938 3500 
L 4056 3500 
L 2584 -331 
Q 2363 -916 2067 -1148 
Q 1772 -1381 1288 -1381 
L 641 -1381 
L 641 -647 
L 991 -647 
Q 1275 -647 1404 -556 
Q 1534 -466 1606 -231 
L 1638 -134 
L 78 3500 
z
" transform="scale(0.015625)"/>
      </defs>
      <use xlink:href="#DejaVuSans-Bold-25"/>
      <use xlink:href="#DejaVuSans-Bold-44" transform="translate(76.21875 0)"/>
      <use xlink:href="#DejaVuSans-Bold-5c" transform="translate(140.625 0)"/>
     </g>
    </g>
   </g>
   <g id="text_13">
    <g clip-path="url(#p3a7d417612)">
     <!-- Western -->
     <g transform="translate(464.337586 46.596232) scale(0.073 -0.073)">
      <defs>
       <path id="DejaVuSans-Bold-3a" d="M 191 4666 
L 1344 4666 
L 2150 1275 
L 2950 4666 
L 4109 4666 
L 4909 1275 
L 5716 4666 
L 6859 4666 
L 5759 0 
L 4372 0 
L 3525 3547 
L 2688 0 
L 1300 0 
L 191 4666 
z
" transform="scale(0.015625)"/>
      </defs>
      <use xlink:href="#DejaVuSans-Bold-3a"/>
      <use xlink:href="#DejaVuSans-Bold-48" transform="translate(106.734375 0)"/>
      <use xlink:href="#DejaVuSans-Bold-56" transform="translate(174.5625 0)"/>
      <use xlink:href="#DejaVuSans-Bold-57" transform="translate(234.078125 0)"/>
      <use xlink:href="#DejaVuSans-Bold-48" transform="translate(281.875 0)"/>
      <use xlink:href="#DejaVuSans-Bold-55" transform="translate(349.703125 0)"/>
      <use xlink:href="#DejaVuSans-Bold-51" transform="translate(399.015625 0)"/>
     </g>
    </g>
    <g clip-path="url(#p3a7d417612)">
     <!-- Lake -->
     <g transform="translate(471.906203 55.358228) scale(0.073 -0.073)">
      <defs>
       <path id="DejaVuSans-Bold-2f" d="M 588 4666 
L 1791 4666 
L 1791 909 
L 3903 909 
L 3903 0 
L 588 0 
L 588 4666 
z
" transform="scale(0.015625)"/>
       <path id="DejaVuSans-Bold-4e" d="M 538 4863 
L 1656 4863 
L 1656 2216 
L 2944 3500 
L 4244 3500 
L 2534 1894 
L 4378 0 
L 3022 0 
L 1656 1459 
L 1656 0 
L 538 0 
L 538 4863 
z
" transform="scale(0.015625)"/>
      </defs>
      <use xlink:href="#DejaVuSans-Bold-2f"/>
      <use xlink:href="#DejaVuSans-Bold-44" transform="translate(63.71875 0)"/>
      <use xlink:href="#DejaVuSans-Bold-4e" transform="translate(131.203125 0)"/>
      <use xlink:href="#DejaVuSans-Bold-48" transform="translate(195.015625 0)"/>
     </g>
    </g>
    <g clip-path="url(#p3a7d417612)">
     <!-- Erie -->
     <g transform="translate(473.479695 64.120224) scale(0.073 -0.073)">
      <defs>
       <path id="DejaVuSans-Bold-28" d="M 588 4666 
L 3834 4666 
L 3834 3756 
L 1791 3756 
L 1791 2888 
L 3713 2888 
L 3713 1978 
L 1791 1978 
L 1791 909 
L 3903 909 
L 3903 0 
L 588 0 
L 588 4666 
z
" transform="scale(0.015625)"/>
      </defs>
      <use xlink:href="#DejaVuSans-Bold-28"/>
      <use xlink:href="#DejaVuSans-Bold-55" transform="translate(68.3125 0)"/>
      <use xlink:href="#DejaVuSans-Bold-4c" transform="translate(117.625 0)"/>
      <use xlink:href="#DejaVuSans-Bold-48" transform="translate(151.90625 0)"/>
     </g>
    </g>
   </g>
   <g id="text_14">
    <g clip-path="url(#p3a7d417612)">
     <!-- HAB -->
     <g transform="translate(570.834532 46.596517) scale(0.073 -0.073)">
      <defs>
       <path id="DejaVuSans-Bold-2b" d="M 588 4666 
L 1791 4666 
L 1791 2888 
L 3566 2888 
L 3566 4666 
L 4769 4666 
L 4769 0 
L 3566 0 
L 3566 1978 
L 1791 1978 
L 1791 0 
L 588 0 
L 588 4666 
z
" transform="scale(0.015625)"/>
      </defs>
      <use xlink:href="#DejaVuSans-Bold-2b"/>
      <use xlink:href="#DejaVuSans-Bold-24" transform="translate(83.6875 0)"/>
      <use xlink:href="#DejaVuSans-Bold-25" transform="translate(161.078125 0)"/>
     </g>
    </g>
    <g clip-path="url(#p3a7d417612)">
     <!-- ecological -->
     <g transform="translate(558.847704 55.358513) scale(0.073 -0.073)">
      <defs>
       <path id="DejaVuSans-Bold-52" d="M 2203 2784 
Q 1831 2784 1636 2517 
Q 1441 2250 1441 1747 
Q 1441 1244 1636 976 
Q 1831 709 2203 709 
Q 2569 709 2762 976 
Q 2956 1244 2956 1747 
Q 2956 2250 2762 2517 
Q 2569 2784 2203 2784 
z
M 2203 3584 
Q 3106 3584 3614 3096 
Q 4122 2609 4122 1747 
Q 4122 884 3614 396 
Q 3106 -91 2203 -91 
Q 1297 -91 786 396 
Q 275 884 275 1747 
Q 275 2609 786 3096 
Q 1297 3584 2203 3584 
z
" transform="scale(0.015625)"/>
      </defs>
      <use xlink:href="#DejaVuSans-Bold-48"/>
      <use xlink:href="#DejaVuSans-Bold-46" transform="translate(67.828125 0)"/>
      <use xlink:href="#DejaVuSans-Bold-52" transform="translate(127.109375 0)"/>
      <use xlink:href="#DejaVuSans-Bold-4f" transform="translate(195.8125 0)"/>
      <use xlink:href="#DejaVuSans-Bold-52" transform="translate(230.09375 0)"/>
      <use xlink:href="#DejaVuSans-Bold-4a" transform="translate(298.796875 0)"/>
      <use xlink:href="#DejaVuSans-Bold-4c" transform="translate(370.375 0)"/>
      <use xlink:href="#DejaVuSans-Bold-46" transform="translate(404.65625 0)"/>
      <use xlink:href="#DejaVuSans-Bold-44" transform="translate(463.9375 0)"/>
      <use xlink:href="#DejaVuSans-Bold-4f" transform="translate(531.421875 0)"/>
     </g>
    </g>
    <g clip-path="url(#p3a7d417612)">
     <!-- response -->
     <g transform="translate(560.681258 64.119939) scale(0.073 -0.073)">
      <defs>
       <path id="DejaVuSans-Bold-53" d="M 1656 506 
L 1656 -1331 
L 538 -1331 
L 538 3500 
L 1656 3500 
L 1656 2988 
Q 1888 3294 2169 3439 
Q 2450 3584 2816 3584 
Q 3463 3584 3878 3070 
Q 4294 2556 4294 1747 
Q 4294 938 3878 423 
Q 3463 -91 2816 -91 
Q 2450 -91 2169 54 
Q 1888 200 1656 506 
z
M 2400 2772 
Q 2041 2772 1848 2508 
Q 1656 2244 1656 1747 
Q 1656 1250 1848 986 
Q 2041 722 2400 722 
Q 2759 722 2948 984 
Q 3138 1247 3138 1747 
Q 3138 2247 2948 2509 
Q 2759 2772 2400 2772 
z
" transform="scale(0.015625)"/>
      </defs>
      <use xlink:href="#DejaVuSans-Bold-55"/>
      <use xlink:href="#DejaVuSans-Bold-48" transform="translate(49.3125 0)"/>
      <use xlink:href="#DejaVuSans-Bold-56" transform="translate(117.140625 0)"/>
      <use xlink:href="#DejaVuSans-Bold-53" transform="translate(176.65625 0)"/>
      <use xlink:href="#DejaVuSans-Bold-52" transform="translate(248.234375 0)"/>
      <use xlink:href="#DejaVuSans-Bold-51" transform="translate(316.9375 0)"/>
      <use xlink:href="#DejaVuSans-Bold-56" transform="translate(388.125 0)"/>
      <use xlink:href="#DejaVuSans-Bold-48" transform="translate(447.640625 0)"/>
     </g>
    </g>
   </g>
   <g id="text_15">
    <g clip-path="url(#p3a7d417612)">
     <!-- Water -->
     <g transform="translate(665.112532 42.215234) scale(0.073 -0.073)">
      <use xlink:href="#DejaVuSans-Bold-3a"/>
      <use xlink:href="#DejaVuSans-Bold-44" transform="translate(106.734375 0)"/>
      <use xlink:href="#DejaVuSans-Bold-57" transform="translate(174.21875 0)"/>
      <use xlink:href="#DejaVuSans-Bold-48" transform="translate(222.015625 0)"/>
      <use xlink:href="#DejaVuSans-Bold-55" transform="translate(289.84375 0)"/>
     </g>
    </g>
    <g clip-path="url(#p3a7d417612)">
     <!-- Intake -->
     <g transform="translate(664.522829 50.97723) scale(0.073 -0.073)">
      <defs>
       <path id="DejaVuSans-Bold-2c" d="M 588 4666 
L 1791 4666 
L 1791 0 
L 588 0 
L 588 4666 
z
" transform="scale(0.015625)"/>
      </defs>
      <use xlink:href="#DejaVuSans-Bold-2c"/>
      <use xlink:href="#DejaVuSans-Bold-51" transform="translate(37.203125 0)"/>
      <use xlink:href="#DejaVuSans-Bold-57" transform="translate(108.390625 0)"/>
      <use xlink:href="#DejaVuSans-Bold-44" transform="translate(156.1875 0)"/>
      <use xlink:href="#DejaVuSans-Bold-4e" transform="translate(223.671875 0)"/>
      <use xlink:href="#DejaVuSans-Bold-48" transform="translate(287.484375 0)"/>
     </g>
    </g>
    <g clip-path="url(#p3a7d417612)">
     <!-- Crib -->
     <g transform="translate(669.149204 59.739226) scale(0.073 -0.073)">
      <defs>
       <path id="DejaVuSans-Bold-26" d="M 4288 256 
Q 3956 84 3597 -3 
Q 3238 -91 2847 -91 
Q 1681 -91 1000 561 
Q 319 1213 319 2328 
Q 319 3447 1000 4098 
Q 1681 4750 2847 4750 
Q 3238 4750 3597 4662 
Q 3956 4575 4288 4403 
L 4288 3438 
Q 3953 3666 3628 3772 
Q 3303 3878 2944 3878 
Q 2300 3878 1931 3465 
Q 1563 3053 1563 2328 
Q 1563 1606 1931 1193 
Q 2300 781 2944 781 
Q 3303 781 3628 887 
Q 3953 994 4288 1222 
L 4288 256 
z
" transform="scale(0.015625)"/>
      </defs>
      <use xlink:href="#DejaVuSans-Bold-26"/>
      <use xlink:href="#DejaVuSans-Bold-55" transform="translate(73.390625 0)"/>
      <use xlink:href="#DejaVuSans-Bold-4c" transform="translate(122.703125 0)"/>
      <use xlink:href="#DejaVuSans-Bold-45" transform="translate(156.984375 0)"/>
     </g>
    </g>
    <g clip-path="url(#p3a7d417612)">
     <!-- monitoring -->
     <g transform="translate(654.816681 68.501222) scale(0.073 -0.073)">
      <use xlink:href="#DejaVuSans-Bold-50"/>
      <use xlink:href="#DejaVuSans-Bold-52" transform="translate(104.203125 0)"/>
      <use xlink:href="#DejaVuSans-Bold-51" transform="translate(172.90625 0)"/>
      <use xlink:href="#DejaVuSans-Bold-4c" transform="translate(244.09375 0)"/>
      <use xlink:href="#DejaVuSans-Bold-57" transform="translate(278.375 0)"/>
      <use xlink:href="#DejaVuSans-Bold-52" transform="translate(326.171875 0)"/>
      <use xlink:href="#DejaVuSans-Bold-55" transform="translate(394.875 0)"/>
      <use xlink:href="#DejaVuSans-Bold-4c" transform="translate(444.1875 0)"/>
      <use xlink:href="#DejaVuSans-Bold-51" transform="translate(478.46875 0)"/>
      <use xlink:href="#DejaVuSans-Bold-4a" transform="translate(549.65625 0)"/>
     </g>
    </g>
   </g>
   <g id="text_16">
    <g clip-path="url(#p3a7d417612)">
     <!-- Collins -->
     <g transform="translate(761.77672 42.216089) scale(0.073 -0.073)">
      <use xlink:href="#DejaVuSans-Bold-26"/>
      <use xlink:href="#DejaVuSans-Bold-52" transform="translate(73.390625 0)"/>
      <use xlink:href="#DejaVuSans-Bold-4f" transform="translate(142.09375 0)"/>
      <use xlink:href="#DejaVuSans-Bold-4f" transform="translate(176.375 0)"/>
      <use xlink:href="#DejaVuSans-Bold-4c" transform="translate(210.65625 0)"/>
      <use xlink:href="#DejaVuSans-Bold-51" transform="translate(244.9375 0)"/>
      <use xlink:href="#DejaVuSans-Bold-56" transform="translate(316.125 0)"/>
     </g>
    </g>
    <g clip-path="url(#p3a7d417612)">
     <!-- Park -->
     <g transform="translate(766.220025 50.978085) scale(0.073 -0.073)">
      <defs>
       <path id="DejaVuSans-Bold-33" d="M 588 4666 
L 2584 4666 
Q 3475 4666 3951 4270 
Q 4428 3875 4428 3144 
Q 4428 2409 3951 2014 
Q 3475 1619 2584 1619 
L 1791 1619 
L 1791 0 
L 588 0 
L 588 4666 
z
M 1791 3794 
L 1791 2491 
L 2456 2491 
Q 2806 2491 2997 2661 
Q 3188 2831 3188 3144 
Q 3188 3456 2997 3625 
Q 2806 3794 2456 3794 
L 1791 3794 
z
" transform="scale(0.015625)"/>
      </defs>
      <use xlink:href="#DejaVuSans-Bold-33"/>
      <use xlink:href="#DejaVuSans-Bold-44" transform="translate(70.609375 0)"/>
      <use xlink:href="#DejaVuSans-Bold-55" transform="translate(138.09375 0)"/>
      <use xlink:href="#DejaVuSans-Bold-4e" transform="translate(187.40625 0)"/>
     </g>
    </g>
    <g clip-path="url(#p3a7d417612)">
     <!-- Water -->
     <g transform="translate(763.1084 59.739511) scale(0.073 -0.073)">
      <use xlink:href="#DejaVuSans-Bold-3a"/>
      <use xlink:href="#DejaVuSans-Bold-44" transform="translate(106.734375 0)"/>
      <use xlink:href="#DejaVuSans-Bold-57" transform="translate(174.21875 0)"/>
      <use xlink:href="#DejaVuSans-Bold-48" transform="translate(222.015625 0)"/>
      <use xlink:href="#DejaVuSans-Bold-55" transform="translate(289.84375 0)"/>
     </g>
    </g>
    <g clip-path="url(#p3a7d417612)">
     <!-- Treatment -->
     <g transform="translate(754.29308 68.500937) scale(0.073 -0.073)">
      <defs>
       <path id="DejaVuSans-Bold-37" d="M 31 4666 
L 4331 4666 
L 4331 3756 
L 2784 3756 
L 2784 0 
L 1581 0 
L 1581 3756 
L 31 3756 
L 31 4666 
z
" transform="scale(0.015625)"/>
      </defs>
      <use xlink:href="#DejaVuSans-Bold-37"/>
      <use xlink:href="#DejaVuSans-Bold-55" transform="translate(57.234375 0)"/>
      <use xlink:href="#DejaVuSans-Bold-48" transform="translate(106.546875 0)"/>
      <use xlink:href="#DejaVuSans-Bold-44" transform="translate(174.375 0)"/>
      <use xlink:href="#DejaVuSans-Bold-57" transform="translate(241.859375 0)"/>
      <use xlink:href="#DejaVuSans-Bold-50" transform="translate(289.65625 0)"/>
      <use xlink:href="#DejaVuSans-Bold-48" transform="translate(393.859375 0)"/>
      <use xlink:href="#DejaVuSans-Bold-51" transform="translate(461.6875 0)"/>
      <use xlink:href="#DejaVuSans-Bold-57" transform="translate(532.875 0)"/>
     </g>
    </g>
   </g>
   <g id="text_17">
    <g clip-path="url(#p3a7d417612)">
     <!-- Toledo -->
     <g transform="translate(860.12333 46.596802) scale(0.073 -0.073)">
      <use xlink:href="#DejaVuSans-Bold-37"/>
      <use xlink:href="#DejaVuSans-Bold-52" transform="translate(54.9375 0)"/>
      <use xlink:href="#DejaVuSans-Bold-4f" transform="translate(123.640625 0)"/>
      <use xlink:href="#DejaVuSans-Bold-48" transform="translate(157.921875 0)"/>
      <use xlink:href="#DejaVuSans-Bold-47" transform="translate(225.75 0)"/>
      <use xlink:href="#DejaVuSans-Bold-52" transform="translate(297.328125 0)"/>
     </g>
    </g>
    <g clip-path="url(#p3a7d417612)">
     <!-- regional -->
     <g transform="translate(856.523518 55.358798) scale(0.073 -0.073)">
      <use xlink:href="#DejaVuSans-Bold-55"/>
      <use xlink:href="#DejaVuSans-Bold-48" transform="translate(49.3125 0)"/>
      <use xlink:href="#DejaVuSans-Bold-4a" transform="translate(117.140625 0)"/>
      <use xlink:href="#DejaVuSans-Bold-4c" transform="translate(188.71875 0)"/>
      <use xlink:href="#DejaVuSans-Bold-52" transform="translate(223 0)"/>
      <use xlink:href="#DejaVuSans-Bold-51" transform="translate(291.703125 0)"/>
      <use xlink:href="#DejaVuSans-Bold-44" transform="translate(362.890625 0)"/>
      <use xlink:href="#DejaVuSans-Bold-4f" transform="translate(430.375 0)"/>
     </g>
    </g>
    <g clip-path="url(#p3a7d417612)">
     <!-- consumers -->
     <g transform="translate(851.191666 64.120224) scale(0.073 -0.073)">
      <use xlink:href="#DejaVuSans-Bold-46"/>
      <use xlink:href="#DejaVuSans-Bold-52" transform="translate(59.28125 0)"/>
      <use xlink:href="#DejaVuSans-Bold-51" transform="translate(127.984375 0)"/>
      <use xlink:href="#DejaVuSans-Bold-56" transform="translate(199.171875 0)"/>
      <use xlink:href="#DejaVuSans-Bold-58" transform="translate(258.6875 0)"/>
      <use xlink:href="#DejaVuSans-Bold-50" transform="translate(329.875 0)"/>
      <use xlink:href="#DejaVuSans-Bold-48" transform="translate(434.078125 0)"/>
      <use xlink:href="#DejaVuSans-Bold-55" transform="translate(501.90625 0)"/>
      <use xlink:href="#DejaVuSans-Bold-56" transform="translate(551.21875 0)"/>
     </g>
    </g>
   </g>
   <g id="text_18">
    <g clip-path="url(#p3a7d417612)">
     <!-- Current -->
     <g transform="translate(191.416 325.886321) scale(0.073 -0.073)">
      <use xlink:href="#DejaVuSans-Bold-26"/>
      <use xlink:href="#DejaVuSans-Bold-58" transform="translate(73.390625 0)"/>
      <use xlink:href="#DejaVuSans-Bold-55" transform="translate(144.578125 0)"/>
      <use xlink:href="#DejaVuSans-Bold-55" transform="translate(193.890625 0)"/>
      <use xlink:href="#DejaVuSans-Bold-48" transform="translate(243.203125 0)"/>
      <use xlink:href="#DejaVuSans-Bold-51" transform="translate(311.03125 0)"/>
      <use xlink:href="#DejaVuSans-Bold-57" transform="translate(382.21875 0)"/>
     </g>
    </g>
    <g clip-path="url(#p3a7d417612)">
     <!-- wetlands -->
     <g transform="translate(188.421289 334.648317) scale(0.073 -0.073)">
      <defs>
       <path id="DejaVuSans-Bold-5a" d="M 225 3500 
L 1313 3500 
L 1900 1088 
L 2491 3500 
L 3425 3500 
L 4013 1113 
L 4603 3500 
L 5691 3500 
L 4769 0 
L 3547 0 
L 2956 2406 
L 2369 0 
L 1147 0 
L 225 3500 
z
" transform="scale(0.015625)"/>
      </defs>
      <use xlink:href="#DejaVuSans-Bold-5a"/>
      <use xlink:href="#DejaVuSans-Bold-48" transform="translate(92.390625 0)"/>
      <use xlink:href="#DejaVuSans-Bold-57" transform="translate(160.21875 0)"/>
      <use xlink:href="#DejaVuSans-Bold-4f" transform="translate(208.015625 0)"/>
      <use xlink:href="#DejaVuSans-Bold-44" transform="translate(242.296875 0)"/>
      <use xlink:href="#DejaVuSans-Bold-51" transform="translate(309.78125 0)"/>
      <use xlink:href="#DejaVuSans-Bold-47" transform="translate(380.96875 0)"/>
      <use xlink:href="#DejaVuSans-Bold-56" transform="translate(452.546875 0)"/>
     </g>
    </g>
   </g>
   <g id="text_19">
    <!-- Solid graph: 2026 real/inferred structure. Edge quantities are NULL unless an authoritative system-wide value exists. -->
    <g transform="translate(16.686 350.583684) scale(0.08 -0.08)">
     <defs>
      <path id="DejaVuSans-36" d="M 3425 4513 
L 3425 3897 
Q 3066 4069 2747 4153 
Q 2428 4238 2131 4238 
Q 1616 4238 1336 4038 
Q 1056 3838 1056 3469 
Q 1056 3159 1242 3001 
Q 1428 2844 1947 2747 
L 2328 2669 
Q 3034 2534 3370 2195 
Q 3706 1856 3706 1288 
Q 3706 609 3251 259 
Q 2797 -91 1919 -91 
Q 1588 -91 1214 -16 
Q 841 59 441 206 
L 441 856 
Q 825 641 1194 531 
Q 1563 422 1919 422 
Q 2459 422 2753 634 
Q 3047 847 3047 1241 
Q 3047 1584 2836 1778 
Q 2625 1972 2144 2069 
L 1759 2144 
Q 1053 2284 737 2584 
Q 422 2884 422 3419 
Q 422 4038 858 4394 
Q 1294 4750 2059 4750 
Q 2388 4750 2728 4690 
Q 3069 4631 3425 4513 
z
" transform="scale(0.015625)"/>
      <path id="DejaVuSans-1d" d="M 750 794 
L 1409 794 
L 1409 0 
L 750 0 
L 750 794 
z
M 750 3309 
L 1409 3309 
L 1409 2516 
L 750 2516 
L 750 3309 
z
" transform="scale(0.015625)"/>
      <path id="DejaVuSans-15" d="M 1228 531 
L 3431 531 
L 3431 0 
L 469 0 
L 469 531 
Q 828 903 1448 1529 
Q 2069 2156 2228 2338 
Q 2531 2678 2651 2914 
Q 2772 3150 2772 3378 
Q 2772 3750 2511 3984 
Q 2250 4219 1831 4219 
Q 1534 4219 1204 4116 
Q 875 4013 500 3803 
L 500 4441 
Q 881 4594 1212 4672 
Q 1544 4750 1819 4750 
Q 2544 4750 2975 4387 
Q 3406 4025 3406 3419 
Q 3406 3131 3298 2873 
Q 3191 2616 2906 2266 
Q 2828 2175 2409 1742 
Q 1991 1309 1228 531 
z
" transform="scale(0.015625)"/>
      <path id="DejaVuSans-13" d="M 2034 4250 
Q 1547 4250 1301 3770 
Q 1056 3291 1056 2328 
Q 1056 1369 1301 889 
Q 1547 409 2034 409 
Q 2525 409 2770 889 
Q 3016 1369 3016 2328 
Q 3016 3291 2770 3770 
Q 2525 4250 2034 4250 
z
M 2034 4750 
Q 2819 4750 3233 4129 
Q 3647 3509 3647 2328 
Q 3647 1150 3233 529 
Q 2819 -91 2034 -91 
Q 1250 -91 836 529 
Q 422 1150 422 2328 
Q 422 3509 836 4129 
Q 1250 4750 2034 4750 
z
" transform="scale(0.015625)"/>
      <path id="DejaVuSans-19" d="M 2113 2584 
Q 1688 2584 1439 2293 
Q 1191 2003 1191 1497 
Q 1191 994 1439 701 
Q 1688 409 2113 409 
Q 2538 409 2786 701 
Q 3034 994 3034 1497 
Q 3034 2003 2786 2293 
Q 2538 2584 2113 2584 
z
M 3366 4563 
L 3366 3988 
Q 3128 4100 2886 4159 
Q 2644 4219 2406 4219 
Q 1781 4219 1451 3797 
Q 1122 3375 1075 2522 
Q 1259 2794 1537 2939 
Q 1816 3084 2150 3084 
Q 2853 3084 3261 2657 
Q 3669 2231 3669 1497 
Q 3669 778 3244 343 
Q 2819 -91 2113 -91 
Q 1303 -91 875 529 
Q 447 1150 447 2328 
Q 447 3434 972 4092 
Q 1497 4750 2381 4750 
Q 2619 4750 2861 4703 
Q 3103 4656 3366 4563 
z
" transform="scale(0.015625)"/>
      <path id="DejaVuSans-49" d="M 2375 4863 
L 2375 4384 
L 1825 4384 
Q 1516 4384 1395 4259 
Q 1275 4134 1275 3809 
L 1275 3500 
L 2222 3500 
L 2222 3053 
L 1275 3053 
L 1275 0 
L 697 0 
L 697 3053 
L 147 3053 
L 147 3500 
L 697 3500 
L 697 3744 
Q 697 4328 969 4595 
Q 1241 4863 1831 4863 
L 2375 4863 
z
" transform="scale(0.015625)"/>
      <path id="DejaVuSans-11" d="M 684 794 
L 1344 794 
L 1344 0 
L 684 0 
L 684 794 
z
" transform="scale(0.015625)"/>
      <path id="DejaVuSans-28" d="M 628 4666 
L 3578 4666 
L 3578 4134 
L 1259 4134 
L 1259 2753 
L 3481 2753 
L 3481 2222 
L 1259 2222 
L 1259 531 
L 3634 531 
L 3634 0 
L 628 0 
L 628 4666 
z
" transform="scale(0.015625)"/>
      <path id="DejaVuSans-54" d="M 947 1747 
Q 947 1113 1208 752 
Q 1469 391 1925 391 
Q 2381 391 2643 752 
Q 2906 1113 2906 1747 
Q 2906 2381 2643 2742 
Q 2381 3103 1925 3103 
Q 1469 3103 1208 2742 
Q 947 2381 947 1747 
z
M 2906 525 
Q 2725 213 2448 61 
Q 2172 -91 1784 -91 
Q 1150 -91 751 415 
Q 353 922 353 1747 
Q 353 2572 751 3078 
Q 1150 3584 1784 3584 
Q 2172 3584 2448 3432 
Q 2725 3281 2906 2969 
L 2906 3500 
L 3481 3500 
L 3481 -1331 
L 2906 -1331 
L 2906 525 
z
" transform="scale(0.015625)"/>
      <path id="DejaVuSans-31" d="M 628 4666 
L 1478 4666 
L 3547 763 
L 3547 4666 
L 4159 4666 
L 4159 0 
L 3309 0 
L 1241 3903 
L 1241 0 
L 628 0 
L 628 4666 
z
" transform="scale(0.015625)"/>
      <path id="DejaVuSans-38" d="M 556 4666 
L 1191 4666 
L 1191 1831 
Q 1191 1081 1462 751 
Q 1734 422 2344 422 
Q 2950 422 3222 751 
Q 3494 1081 3494 1831 
L 3494 4666 
L 4128 4666 
L 4128 1753 
Q 4128 841 3676 375 
Q 3225 -91 2344 -91 
Q 1459 -91 1007 375 
Q 556 841 556 1753 
L 556 4666 
z
" transform="scale(0.015625)"/>
      <path id="DejaVuSans-2f" d="M 628 4666 
L 1259 4666 
L 1259 531 
L 3531 531 
L 3531 0 
L 628 0 
L 628 4666 
z
" transform="scale(0.015625)"/>
      <path id="DejaVuSans-50" d="M 3328 2828 
Q 3544 3216 3844 3400 
Q 4144 3584 4550 3584 
Q 5097 3584 5394 3201 
Q 5691 2819 5691 2113 
L 5691 0 
L 5113 0 
L 5113 2094 
Q 5113 2597 4934 2840 
Q 4756 3084 4391 3084 
Q 3944 3084 3684 2787 
Q 3425 2491 3425 1978 
L 3425 0 
L 2847 0 
L 2847 2094 
Q 2847 2600 2669 2842 
Q 2491 3084 2119 3084 
Q 1678 3084 1418 2786 
Q 1159 2488 1159 1978 
L 1159 0 
L 581 0 
L 581 3500 
L 1159 3500 
L 1159 2956 
Q 1356 3278 1631 3431 
Q 1906 3584 2284 3584 
Q 2666 3584 2933 3390 
Q 3200 3197 3328 2828 
z
" transform="scale(0.015625)"/>
     </defs>
     <use xlink:href="#DejaVuSans-36"/>
     <use xlink:href="#DejaVuSans-52" transform="translate(63.484375 0)"/>
     <use xlink:href="#DejaVuSans-4f" transform="translate(124.671875 0)"/>
     <use xlink:href="#DejaVuSans-4c" transform="translate(152.453125 0)"/>
     <use xlink:href="#DejaVuSans-47" transform="translate(180.234375 0)"/>
     <use xlink:href="#DejaVuSans-3" transform="translate(243.71875 0)"/>
     <use xlink:href="#DejaVuSans-4a" transform="translate(275.5 0)"/>
     <use xlink:href="#DejaVuSans-55" transform="translate(338.984375 0)"/>
     <use xlink:href="#DejaVuSans-44" transform="translate(380.09375 0)"/>
     <use xlink:href="#DejaVuSans-53" transform="translate(441.375 0)"/>
     <use xlink:href="#DejaVuSans-4b" transform="translate(504.859375 0)"/>
     <use xlink:href="#DejaVuSans-1d" transform="translate(568.234375 0)"/>
     <use xlink:href="#DejaVuSans-3" transform="translate(601.921875 0)"/>
     <use xlink:href="#DejaVuSans-15" transform="translate(633.703125 0)"/>
     <use xlink:href="#DejaVuSans-13" transform="translate(697.328125 0)"/>
     <use xlink:href="#DejaVuSans-15" transform="translate(760.953125 0)"/>
     <use xlink:href="#DejaVuSans-19" transform="translate(824.578125 0)"/>
     <use xlink:href="#DejaVuSans-3" transform="translate(888.203125 0)"/>
     <use xlink:href="#DejaVuSans-55" transform="translate(919.984375 0)"/>
     <use xlink:href="#DejaVuSans-48" transform="translate(958.890625 0)"/>
     <use xlink:href="#DejaVuSans-44" transform="translate(1020.421875 0)"/>
     <use xlink:href="#DejaVuSans-4f" transform="translate(1081.703125 0)"/>
     <use xlink:href="#DejaVuSans-12" transform="translate(1109.484375 0)"/>
     <use xlink:href="#DejaVuSans-4c" transform="translate(1143.171875 0)"/>
     <use xlink:href="#DejaVuSans-51" transform="translate(1170.953125 0)"/>
     <use xlink:href="#DejaVuSans-49" transform="translate(1234.328125 0)"/>
     <use xlink:href="#DejaVuSans-48" transform="translate(1269.53125 0)"/>
     <use xlink:href="#DejaVuSans-55" transform="translate(1331.0625 0)"/>
     <use xlink:href="#DejaVuSans-55" transform="translate(1370.421875 0)"/>
     <use xlink:href="#DejaVuSans-48" transform="translate(1409.328125 0)"/>
     <use xlink:href="#DejaVuSans-47" transform="translate(1470.859375 0)"/>
     <use xlink:href="#DejaVuSans-3" transform="translate(1534.34375 0)"/>
     <use xlink:href="#DejaVuSans-56" transform="translate(1566.125 0)"/>
     <use xlink:href="#DejaVuSans-57" transform="translate(1618.21875 0)"/>
     <use xlink:href="#DejaVuSans-55" transform="translate(1657.421875 0)"/>
     <use xlink:href="#DejaVuSans-58" transform="translate(1698.53125 0)"/>
     <use xlink:href="#DejaVuSans-46" transform="translate(1761.90625 0)"/>
     <use xlink:href="#DejaVuSans-57" transform="translate(1816.890625 0)"/>
     <use xlink:href="#DejaVuSans-58" transform="translate(1856.09375 0)"/>
     <use xlink:href="#DejaVuSans-55" transform="translate(1919.46875 0)"/>
     <use xlink:href="#DejaVuSans-48" transform="translate(1958.375 0)"/>
     <use xlink:href="#DejaVuSans-11" transform="translate(2019.90625 0)"/>
     <use xlink:href="#DejaVuSans-3" transform="translate(2051.6875 0)"/>
     <use xlink:href="#DejaVuSans-28" transform="translate(2083.46875 0)"/>
     <use xlink:href="#DejaVuSans-47" transform="translate(2146.65625 0)"/>
     <use xlink:href="#DejaVuSans-4a" transform="translate(2210.140625 0)"/>
     <use xlink:href="#DejaVuSans-48" transform="translate(2273.625 0)"/>
     <use xlink:href="#DejaVuSans-3" transform="translate(2335.15625 0)"/>
     <use xlink:href="#DejaVuSans-54" transform="translate(2366.9375 0)"/>
     <use xlink:href="#DejaVuSans-58" transform="translate(2430.421875 0)"/>
     <use xlink:href="#DejaVuSans-44" transform="translate(2493.796875 0)"/>
     <use xlink:href="#DejaVuSans-51" transform="translate(2555.078125 0)"/>
     <use xlink:href="#DejaVuSans-57" transform="translate(2618.453125 0)"/>
     <use xlink:href="#DejaVuSans-4c" transform="translate(2657.65625 0)"/>
     <use xlink:href="#DejaVuSans-57" transform="translate(2685.4375 0)"/>
     <use xlink:href="#DejaVuSans-4c" transform="translate(2724.640625 0)"/>
     <use xlink:href="#DejaVuSans-48" transform="translate(2752.421875 0)"/>
     <use xlink:href="#DejaVuSans-56" transform="translate(2813.953125 0)"/>
     <use xlink:href="#DejaVuSans-3" transform="translate(2866.046875 0)"/>
     <use xlink:href="#DejaVuSans-44" transform="translate(2897.828125 0)"/>
     <use xlink:href="#DejaVuSans-55" transform="translate(2959.109375 0)"/>
     <use xlink:href="#DejaVuSans-48" transform="translate(2998.015625 0)"/>
     <use xlink:href="#DejaVuSans-3" transform="translate(3059.546875 0)"/>
     <use xlink:href="#DejaVuSans-31" transform="translate(3091.328125 0)"/>
     <use xlink:href="#DejaVuSans-38" transform="translate(3166.140625 0)"/>
     <use xlink:href="#DejaVuSans-2f" transform="translate(3239.328125 0)"/>
     <use xlink:href="#DejaVuSans-2f" transform="translate(3295.046875 0)"/>
     <use xlink:href="#DejaVuSans-3" transform="translate(3350.765625 0)"/>
     <use xlink:href="#DejaVuSans-58" transform="translate(3382.546875 0)"/>
     <use xlink:href="#DejaVuSans-51" transform="translate(3445.921875 0)"/>
     <use xlink:href="#DejaVuSans-4f" transform="translate(3509.296875 0)"/>
     <use xlink:href="#DejaVuSans-48" transform="translate(3537.078125 0)"/>
     <use xlink:href="#DejaVuSans-56" transform="translate(3598.609375 0)"/>
     <use xlink:href="#DejaVuSans-56" transform="translate(3650.703125 0)"/>
     <use xlink:href="#DejaVuSans-3" transform="translate(3702.796875 0)"/>
     <use xlink:href="#DejaVuSans-44" transform="translate(3734.578125 0)"/>
     <use xlink:href="#DejaVuSans-51" transform="translate(3795.859375 0)"/>
     <use xlink:href="#DejaVuSans-3" transform="translate(3859.234375 0)"/>
     <use xlink:href="#DejaVuSans-44" transform="translate(3891.015625 0)"/>
     <use xlink:href="#DejaVuSans-58" transform="translate(3952.296875 0)"/>
     <use xlink:href="#DejaVuSans-57" transform="translate(4015.671875 0)"/>
     <use xlink:href="#DejaVuSans-4b" transform="translate(4054.875 0)"/>
     <use xlink:href="#DejaVuSans-52" transform="translate(4118.25 0)"/>
     <use xlink:href="#DejaVuSans-55" transform="translate(4179.4375 0)"/>
     <use xlink:href="#DejaVuSans-4c" transform="translate(4220.546875 0)"/>
     <use xlink:href="#DejaVuSans-57" transform="translate(4248.328125 0)"/>
     <use xlink:href="#DejaVuSans-44" transform="translate(4287.53125 0)"/>
     <use xlink:href="#DejaVuSans-57" transform="translate(4348.8125 0)"/>
     <use xlink:href="#DejaVuSans-4c" transform="translate(4388.015625 0)"/>
     <use xlink:href="#DejaVuSans-59" transform="translate(4415.796875 0)"/>
     <use xlink:href="#DejaVuSans-48" transform="translate(4474.984375 0)"/>
     <use xlink:href="#DejaVuSans-3" transform="translate(4536.515625 0)"/>
     <use xlink:href="#DejaVuSans-56" transform="translate(4568.296875 0)"/>
     <use xlink:href="#DejaVuSans-5c" transform="translate(4620.390625 0)"/>
     <use xlink:href="#DejaVuSans-56" transform="translate(4679.578125 0)"/>
     <use xlink:href="#DejaVuSans-57" transform="translate(4731.671875 0)"/>
     <use xlink:href="#DejaVuSans-48" transform="translate(4770.875 0)"/>
     <use xlink:href="#DejaVuSans-50" transform="translate(4832.40625 0)"/>
     <use xlink:href="#DejaVuSans-10" transform="translate(4929.8125 0)"/>
     <use xlink:href="#DejaVuSans-5a" transform="translate(4965.890625 0)"/>
     <use xlink:href="#DejaVuSans-4c" transform="translate(5047.671875 0)"/>
     <use xlink:href="#DejaVuSans-47" transform="translate(5075.453125 0)"/>
     <use xlink:href="#DejaVuSans-48" transform="translate(5138.9375 0)"/>
     <use xlink:href="#DejaVuSans-3" transform="translate(5200.46875 0)"/>
     <use xlink:href="#DejaVuSans-59" transform="translate(5232.25 0)"/>
     <use xlink:href="#DejaVuSans-44" transform="translate(5291.4375 0)"/>
     <use xlink:href="#DejaVuSans-4f" transform="translate(5352.71875 0)"/>
     <use xlink:href="#DejaVuSans-58" transform="translate(5380.5 0)"/>
     <use xlink:href="#DejaVuSans-48" transform="translate(5443.875 0)"/>
     <use xlink:href="#DejaVuSans-3" transform="translate(5505.40625 0)"/>
     <use xlink:href="#DejaVuSans-48" transform="translate(5537.1875 0)"/>
     <use xlink:href="#DejaVuSans-5b" transform="translate(5596.96875 0)"/>
     <use xlink:href="#DejaVuSans-4c" transform="translate(5656.15625 0)"/>
     <use xlink:href="#DejaVuSans-56" transform="translate(5683.9375 0)"/>
     <use xlink:href="#DejaVuSans-57" transform="translate(5736.03125 0)"/>
     <use xlink:href="#DejaVuSans-56" transform="translate(5775.234375 0)"/>
     <use xlink:href="#DejaVuSans-11" transform="translate(5827.328125 0)"/>
    </g>
   </g>
   <g id="text_20">
    <!-- WATER SYSTEM v0.1 — SOURCE → TRANSPORT → RECEIVING WATER → INTAKE → TREATMENT → CONSUMERS -->
    <g style="fill: #18333f" transform="translate(7.2 18.596484) scale(0.15 -0.15)">
     <defs>
      <path id="DejaVuSans-Bold-3" transform="scale(0.015625)"/>
      <path id="DejaVuSans-Bold-36" d="M 3834 4519 
L 3834 3531 
Q 3450 3703 3084 3790 
Q 2719 3878 2394 3878 
Q 1963 3878 1756 3759 
Q 1550 3641 1550 3391 
Q 1550 3203 1689 3098 
Q 1828 2994 2194 2919 
L 2706 2816 
Q 3484 2659 3812 2340 
Q 4141 2022 4141 1434 
Q 4141 663 3683 286 
Q 3225 -91 2284 -91 
Q 1841 -91 1394 -6 
Q 947 78 500 244 
L 500 1259 
Q 947 1022 1364 901 
Q 1781 781 2169 781 
Q 2563 781 2772 912 
Q 2981 1044 2981 1288 
Q 2981 1506 2839 1625 
Q 2697 1744 2272 1838 
L 1806 1941 
Q 1106 2091 782 2419 
Q 459 2747 459 3303 
Q 459 4000 909 4375 
Q 1359 4750 2203 4750 
Q 2588 4750 2994 4692 
Q 3400 4634 3834 4519 
z
" transform="scale(0.015625)"/>
      <path id="DejaVuSans-Bold-3c" d="M -63 4666 
L 1253 4666 
L 2316 3003 
L 3378 4666 
L 4697 4666 
L 2919 1966 
L 2919 0 
L 1716 0 
L 1716 1966 
L -63 4666 
z
" transform="scale(0.015625)"/>
      <path id="DejaVuSans-Bold-13" d="M 2944 2338 
Q 2944 3213 2780 3570 
Q 2616 3928 2228 3928 
Q 1841 3928 1675 3570 
Q 1509 3213 1509 2338 
Q 1509 1453 1675 1090 
Q 1841 728 2228 728 
Q 2613 728 2778 1090 
Q 2944 1453 2944 2338 
z
M 4147 2328 
Q 4147 1169 3647 539 
Q 3147 -91 2228 -91 
Q 1306 -91 806 539 
Q 306 1169 306 2328 
Q 306 3491 806 4120 
Q 1306 4750 2228 4750 
Q 3147 4750 3647 4120 
Q 4147 3491 4147 2328 
z
" transform="scale(0.015625)"/>
      <path id="DejaVuSans-Bold-11" d="M 653 1209 
L 1778 1209 
L 1778 0 
L 653 0 
L 653 1209 
z
" transform="scale(0.015625)"/>
      <path id="DejaVuSans-Bold-14" d="M 750 831 
L 1813 831 
L 1813 3847 
L 722 3622 
L 722 4441 
L 1806 4666 
L 2950 4666 
L 2950 831 
L 4013 831 
L 4013 0 
L 750 0 
L 750 831 
z
" transform="scale(0.015625)"/>
      <path id="DejaVuSans-Bold-af6" d="M 344 2156 
L 6056 2156 
L 6056 1350 
L 344 1350 
L 344 2156 
z
" transform="scale(0.015625)"/>
      <path id="DejaVuSans-Bold-32" d="M 2719 3878 
Q 2169 3878 1866 3472 
Q 1563 3066 1563 2328 
Q 1563 1594 1866 1187 
Q 2169 781 2719 781 
Q 3272 781 3575 1187 
Q 3878 1594 3878 2328 
Q 3878 3066 3575 3472 
Q 3272 3878 2719 3878 
z
M 2719 4750 
Q 3844 4750 4481 4106 
Q 5119 3463 5119 2328 
Q 5119 1197 4481 553 
Q 3844 -91 2719 -91 
Q 1597 -91 958 553 
Q 319 1197 319 2328 
Q 319 3463 958 4106 
Q 1597 4750 2719 4750 
z
" transform="scale(0.015625)"/>
      <path id="DejaVuSans-Bold-38" d="M 588 4666 
L 1791 4666 
L 1791 1869 
Q 1791 1291 1980 1042 
Q 2169 794 2597 794 
Q 3028 794 3217 1042 
Q 3406 1291 3406 1869 
L 3406 4666 
L 4609 4666 
L 4609 1869 
Q 4609 878 4112 393 
Q 3616 -91 2597 -91 
Q 1581 -91 1084 393 
Q 588 878 588 1869 
L 588 4666 
z
" transform="scale(0.015625)"/>
      <path id="DejaVuSans-Bold-c1c" d="M 5050 2225 
L 5050 1788 
L 3822 559 
L 3369 1013 
L 3988 1631 
L 366 1631 
L 366 2381 
L 3988 2381 
L 3369 3000 
L 3822 3453 
L 5050 2225 
z
" transform="scale(0.015625)"/>
      <path id="DejaVuSans-Bold-31" d="M 588 4666 
L 1931 4666 
L 3628 1466 
L 3628 4666 
L 4769 4666 
L 4769 0 
L 3425 0 
L 1728 3200 
L 1728 0 
L 588 0 
L 588 4666 
z
" transform="scale(0.015625)"/>
      <path id="DejaVuSans-Bold-39" d="M 31 4666 
L 1241 4666 
L 2478 1222 
L 3713 4666 
L 4922 4666 
L 3194 0 
L 1759 0 
L 31 4666 
z
" transform="scale(0.015625)"/>
      <path id="DejaVuSans-Bold-2a" d="M 4781 347 
Q 4331 128 3847 18 
Q 3363 -91 2847 -91 
Q 1681 -91 1000 561 
Q 319 1213 319 2328 
Q 319 3456 1012 4103 
Q 1706 4750 2913 4750 
Q 3378 4750 3804 4662 
Q 4231 4575 4609 4403 
L 4609 3438 
Q 4219 3659 3833 3768 
Q 3447 3878 3059 3878 
Q 2341 3878 1952 3476 
Q 1563 3075 1563 2328 
Q 1563 1588 1938 1184 
Q 2313 781 3003 781 
Q 3191 781 3352 804 
Q 3513 828 3641 878 
L 3641 1784 
L 2906 1784 
L 2906 2591 
L 4781 2591 
L 4781 347 
z
" transform="scale(0.015625)"/>
      <path id="DejaVuSans-Bold-2e" d="M 588 4666 
L 1791 4666 
L 1791 2963 
L 3525 4666 
L 4922 4666 
L 2675 2456 
L 5153 0 
L 3647 0 
L 1791 1838 
L 1791 0 
L 588 0 
L 588 4666 
z
" transform="scale(0.015625)"/>
     </defs>
     <use xlink:href="#DejaVuSans-Bold-3a"/>
     <use xlink:href="#DejaVuSans-Bold-24" transform="translate(105.8125 0)"/>
     <use xlink:href="#DejaVuSans-Bold-37" transform="translate(175.4375 0)"/>
     <use xlink:href="#DejaVuSans-Bold-28" transform="translate(243.65625 0)"/>
     <use xlink:href="#DejaVuSans-Bold-35" transform="translate(311.96875 0)"/>
     <use xlink:href="#DejaVuSans-Bold-3" transform="translate(388.96875 0)"/>
     <use xlink:href="#DejaVuSans-Bold-36" transform="translate(423.78125 0)"/>
     <use xlink:href="#DejaVuSans-Bold-3c" transform="translate(495.796875 0)"/>
     <use xlink:href="#DejaVuSans-Bold-36" transform="translate(568.203125 0)"/>
     <use xlink:href="#DejaVuSans-Bold-37" transform="translate(640.21875 0)"/>
     <use xlink:href="#DejaVuSans-Bold-28" transform="translate(708.4375 0)"/>
     <use xlink:href="#DejaVuSans-Bold-30" transform="translate(776.75 0)"/>
     <use xlink:href="#DejaVuSans-Bold-3" transform="translate(876.265625 0)"/>
     <use xlink:href="#DejaVuSans-Bold-59" transform="translate(911.078125 0)"/>
     <use xlink:href="#DejaVuSans-Bold-13" transform="translate(976.265625 0)"/>
     <use xlink:href="#DejaVuSans-Bold-11" transform="translate(1045.84375 0)"/>
     <use xlink:href="#DejaVuSans-Bold-14" transform="translate(1083.828125 0)"/>
     <use xlink:href="#DejaVuSans-Bold-3" transform="translate(1153.40625 0)"/>
     <use xlink:href="#DejaVuSans-Bold-af6" transform="translate(1188.21875 0)"/>
     <use xlink:href="#DejaVuSans-Bold-3" transform="translate(1288.21875 0)"/>
     <use xlink:href="#DejaVuSans-Bold-36" transform="translate(1323.03125 0)"/>
     <use xlink:href="#DejaVuSans-Bold-32" transform="translate(1395.046875 0)"/>
     <use xlink:href="#DejaVuSans-Bold-38" transform="translate(1480.0625 0)"/>
     <use xlink:href="#DejaVuSans-Bold-35" transform="translate(1561.265625 0)"/>
     <use xlink:href="#DejaVuSans-Bold-26" transform="translate(1638.265625 0)"/>
     <use xlink:href="#DejaVuSans-Bold-28" transform="translate(1711.65625 0)"/>
     <use xlink:href="#DejaVuSans-Bold-3" transform="translate(1779.96875 0)"/>
     <use xlink:href="#DejaVuSans-Bold-c1c" transform="translate(1814.78125 0)"/>
     <use xlink:href="#DejaVuSans-Bold-3" transform="translate(1898.578125 0)"/>
     <use xlink:href="#DejaVuSans-Bold-37" transform="translate(1933.390625 0)"/>
     <use xlink:href="#DejaVuSans-Bold-35" transform="translate(2001.609375 0)"/>
     <use xlink:href="#DejaVuSans-Bold-24" transform="translate(2078.609375 0)"/>
     <use xlink:href="#DejaVuSans-Bold-31" transform="translate(2156 0)"/>
     <use xlink:href="#DejaVuSans-Bold-36" transform="translate(2239.6875 0)"/>
     <use xlink:href="#DejaVuSans-Bold-33" transform="translate(2311.703125 0)"/>
     <use xlink:href="#DejaVuSans-Bold-32" transform="translate(2385 0)"/>
     <use xlink:href="#DejaVuSans-Bold-35" transform="translate(2470.015625 0)"/>
     <use xlink:href="#DejaVuSans-Bold-37" transform="translate(2542.53125 0)"/>
     <use xlink:href="#DejaVuSans-Bold-3" transform="translate(2610.75 0)"/>
     <use xlink:href="#DejaVuSans-Bold-c1c" transform="translate(2645.5625 0)"/>
     <use xlink:href="#DejaVuSans-Bold-3" transform="translate(2729.359375 0)"/>
     <use xlink:href="#DejaVuSans-Bold-35" transform="translate(2764.171875 0)"/>
     <use xlink:href="#DejaVuSans-Bold-28" transform="translate(2841.171875 0)"/>
     <use xlink:href="#DejaVuSans-Bold-26" transform="translate(2909.484375 0)"/>
     <use xlink:href="#DejaVuSans-Bold-28" transform="translate(2982.875 0)"/>
     <use xlink:href="#DejaVuSans-Bold-2c" transform="translate(3051.1875 0)"/>
     <use xlink:href="#DejaVuSans-Bold-39" transform="translate(3088.390625 0)"/>
     <use xlink:href="#DejaVuSans-Bold-2c" transform="translate(3165.78125 0)"/>
     <use xlink:href="#DejaVuSans-Bold-31" transform="translate(3202.984375 0)"/>
     <use xlink:href="#DejaVuSans-Bold-2a" transform="translate(3286.671875 0)"/>
     <use xlink:href="#DejaVuSans-Bold-3" transform="translate(3368.75 0)"/>
     <use xlink:href="#DejaVuSans-Bold-3a" transform="translate(3403.5625 0)"/>
     <use xlink:href="#DejaVuSans-Bold-24" transform="translate(3509.375 0)"/>
     <use xlink:href="#DejaVuSans-Bold-37" transform="translate(3579 0)"/>
     <use xlink:href="#DejaVuSans-Bold-28" transform="translate(3647.21875 0)"/>
     <use xlink:href="#DejaVuSans-Bold-35" transform="translate(3715.53125 0)"/>
     <use xlink:href="#DejaVuSans-Bold-3" transform="translate(3792.53125 0)"/>
     <use xlink:href="#DejaVuSans-Bold-c1c" transform="translate(3827.34375 0)"/>
     <use xlink:href="#DejaVuSans-Bold-3" transform="translate(3911.140625 0)"/>
     <use xlink:href="#DejaVuSans-Bold-2c" transform="translate(3945.953125 0)"/>
     <use xlink:href="#DejaVuSans-Bold-31" transform="translate(3983.15625 0)"/>
     <use xlink:href="#DejaVuSans-Bold-37" transform="translate(4066.84375 0)"/>
     <use xlink:href="#DejaVuSans-Bold-24" transform="translate(4127.296875 0)"/>
     <use xlink:href="#DejaVuSans-Bold-2e" transform="translate(4204.6875 0)"/>
     <use xlink:href="#DejaVuSans-Bold-28" transform="translate(4282.171875 0)"/>
     <use xlink:href="#DejaVuSans-Bold-3" transform="translate(4350.484375 0)"/>
     <use xlink:href="#DejaVuSans-Bold-c1c" transform="translate(4385.296875 0)"/>
     <use xlink:href="#DejaVuSans-Bold-3" transform="translate(4469.09375 0)"/>
     <use xlink:href="#DejaVuSans-Bold-37" transform="translate(4503.90625 0)"/>
     <use xlink:href="#DejaVuSans-Bold-35" transform="translate(4572.125 0)"/>
     <use xlink:href="#DejaVuSans-Bold-28" transform="translate(4649.125 0)"/>
     <use xlink:href="#DejaVuSans-Bold-24" transform="translate(4717.4375 0)"/>
     <use xlink:href="#DejaVuSans-Bold-37" transform="translate(4787.0625 0)"/>
     <use xlink:href="#DejaVuSans-Bold-30" transform="translate(4855.28125 0)"/>
     <use xlink:href="#DejaVuSans-Bold-28" transform="translate(4954.796875 0)"/>
     <use xlink:href="#DejaVuSans-Bold-31" transform="translate(5023.109375 0)"/>
     <use xlink:href="#DejaVuSans-Bold-37" transform="translate(5106.796875 0)"/>
     <use xlink:href="#DejaVuSans-Bold-3" transform="translate(5175.015625 0)"/>
     <use xlink:href="#DejaVuSans-Bold-c1c" transform="translate(5209.828125 0)"/>
     <use xlink:href="#DejaVuSans-Bold-3" transform="translate(5293.625 0)"/>
     <use xlink:href="#DejaVuSans-Bold-26" transform="translate(5328.4375 0)"/>
     <use xlink:href="#DejaVuSans-Bold-32" transform="translate(5401.828125 0)"/>
     <use xlink:href="#DejaVuSans-Bold-31" transform="translate(5486.84375 0)"/>
     <use xlink:href="#DejaVuSans-Bold-36" transform="translate(5570.53125 0)"/>
     <use xlink:href="#DejaVuSans-Bold-38" transform="translate(5642.546875 0)"/>
     <use xlink:href="#DejaVuSans-Bold-30" transform="translate(5723.75 0)"/>
     <use xlink:href="#DejaVuSans-Bold-28" transform="translate(5823.265625 0)"/>
     <use xlink:href="#DejaVuSans-Bold-35" transform="translate(5891.578125 0)"/>
     <use xlink:href="#DejaVuSans-Bold-36" transform="translate(5968.578125 0)"/>
    </g>
   </g>
  </g>
 </g>
 <defs>
  <clipPath id="p3a7d417612">
   <rect x="7.2" y="24.596484" width="948.6" height="332.64"/>
  </clipPath>
 </defs>
</svg>
